<mxfile host="Electron" modified="2024-03-02T20:18:57.324Z" agent="Mozilla/5.0 (X11; Linux x86_64) AppleWebKit/537.36 (KHTML, like Gecko) draw.io/23.1.5 Chrome/120.0.6099.109 Electron/28.1.0 Safari/537.36" etag="8UOnzfyL9SGmp9FNTrPR" version="23.1.5" type="device">
  <diagram name="StrÃ¡nka-1" id="VjyzOUcB2XCrhVE0pKzB">
    <mxGraphModel dx="819" dy="550" grid="1" gridSize="10" guides="1" tooltips="1" connect="1" arrows="1" fold="1" page="1" pageScale="1" pageWidth="827" pageHeight="1169" math="0" shadow="0">
      <root>
        <mxCell id="0" />
        <mxCell id="1" parent="0" />
        <mxCell id="a4QIQ_dStBdL91H8EMLK-1" value="" style="shape=image;aspect=fixed;image=data:image/png,iVBORw0KGgoAAAANSUhEUgAAAysAAACACAYAAAALZPbsAAAACXBIWXMAAA7EAAAOxAGVKw4bAAAgAElEQVR4XuydeXxN1/qHn73PyZzIIGIW85AIYp6nRLQoaiyKXopqtSWllBa9tHpNNZZWW0OpOaaYJQgZiAgyFDVHECLzIMM5+/dHgpNIztmZ/PTe/Xw+549krb3Oer/rXe+a9j5bqFO/gYSCgoKCgoKCgoKCgsIbhpj/HwoKCgoKCgoKCgoKCm8CymJFQUFBQUFBQUFBQeGNRFmsKCgoKCgoKCgoKCi8kSiLFQUFBQUFBQUFBQWFNxJlsaKgoKDwGpDqZpCyMJH4zQnEr08izSXvb5sYSlf4H8SoPfNO7WOKsyp/isIbhYClyyiW7T5JyMUQLgXu56u2pvkzKSgoFJPcxYox1btNYtn2YwRfDOWS/3H2rhlPC/O8mcsSwbY/a/ZPp7laRYNPtvHrkAoI+TOVFWI56ntMZKmXP1d2jKdOvnFBsG3J+OV78A+5zJWgQ6yf7kF1o7x5ygpjjyVcjrjMno/qogIQrOi97BxXw/bwWQOdiqpdmHbwChdX98VORzjBYSgbLmzg/Uov16VG7edy5sRMWqtf5pOFcSM+2XmRiJ35NDKgn2xMm/D5jr1827Hcy7YXKzJ8/SWuRYZzNfwSF/32s372QBpZvDRStG/Hxyu88A+5xOWAQ2yc9Q51c8cJg/q9KD+CqxFXCDvng9eqybi/rgZGjn+pcBzxK0eWvUOVMtle0NP/5epTiP+VBob1KSl67H9OSe0TtGQOS0fzlwU2o22wHW+F2V+6HVVPulU2z6YmkbA5nvgNiSSPzkSr23cNpZeYwvURHIay4VIE1yLCibzoj8/25UztUx+d7lliVJW7MHn1Hs6eu8ClwKP8OX8Izpal+AUyUDl9xr5tJYht+iit+FksVNQfvYZDPme4eCWcyIsB+B31Yq6b1esbf0uBsmoflYsnR8MiuBaZ7xO6kr6WOhmFCvT5/FPqXphBj1YtcO0yjOUhz3Qy/JeiMz5ciwgj8uJZjm1ewGhXawRkxgez+gycs56jZ0MIDw3i7OGtLB5cJ2e8ftMRtGTMiSduZzxxO+KJ25xA4rxUnj3/kV3bDJL/SOZZeZ1rmqSR8FMa2SoZ1yu8QAQBu26z2fB9Z+I2e/JO5/Z07Deeb38/xY30/NnLDpOmLakdGcxfWnuaN5O4GBrH62kuFfXHr2HNyIpEng0nJX+yUA636QsZJv3JOPc2dBi1F7PhC1g0stZr6kwSmdEPsGrfIWeiatqSzq6pPIrV5smldupBV27yoIkHnW3LYphRU2/kDN6WbhGfp2EM6CcbFXVGTGfw4/Ws9E/K1/ZZnJvvhlOTNnT/YAV3ms9k8TinHP3Fagz9YQmDtDuZ1LsLXYbO52LD6az2bEXOXFOOfhn4fNmaho1dad3rU3Zq+/LDjF7Fm5QWFVn+peHujh854jgFTzebUp5EyOn/hvUpM/+TpU9JkGN/KdgnSmhtQBWhRtAAWQJCtox0QSLzg1SeSSZYTbTBZrYJ0ltppPTS5FxnKL3EyNAnO5h5bk1p0mkAn2+6T/MZv7PyPcfSaR/Bml4zFtArbjVDOreixdtf4u/oyX/GNCyd8mViXLU6Fctko0BO/JSQymww1HB940R6ufVkzul0rv48km49BzDXJ/k1jb+lQ1m1jyZsGb2aNcHJ5fmnKZ1m+hIbFsylNJ2Moh0O9hquBYcSpwEpM5W0LJ30/2qyODe/O42cm9C0y3vMCarKpMWf0sYkN1lvfFDhPG4h3zT7m/+M6Earjr14b8pytoc8oLQiWNkjYPSbNXZDbLEbXw7zcC3pk9PJkr2hVtLr/zcQUdVk0EcexP46ne8OhPMoJZ2U2NuEBl8nUQJ148l4+86ji8XLi1R1J+AVsJJ+z2crKgc6TFjEtqP+XL4SygWfP/nGvYKse8zUTSay2dubQ9/1omKHL9lzcCtftKzFkOV72DDe+TUMSBqurxuNx8i5bAqNe7XOpq15q2MMfy7zIjJeokYPd2pmaGjcszs1dCsnVmPYujP4zm5P6R7+ChB9mTCHjnSsIGLSrBMt7oVwJVM3jxrnHt0QT61kc0QTena2LfqE1kD9VY5DmfXuI37+81q+sg3oJxe1C4MHVcZvxzFiCxsltRkk3DrFgcBYKteoihpQ1erN4KaRrFuwndBHiSREBbBm+UHUvQbSzhzk6ZeLpCH9aSTeJyJRVayEna4xBvQpNnL9K+svdu+NpstQDxyKLXIBGOj/eShUHxn+V1z95OpTXGTZXwL7ymeSsiSRhF+SSa8ukekZT9yf8cSvTSNLLSPdOJvMZiKmf5qgSgZN20w0WZDdLguNKCO9pMjSB0AiOzWG8IOL+XzhRZzGfUCeu2AK08cgakzNRO6GhvAwQ0KTEEnw1USMzUxfbYPiomf8UjX+iC0+/gQs7omN0yT2hYQSdukC+z/LHZvUrfDccZSzQSFEnPk3A9/6iq1HTxHgf5R5nc1efkeh9suLnw5dprHh4GmCz5/h8NrP6OSQz/kLLf+fj2DdnLFLdnAy8DwXz/tzctdCBtXKneoaah8E7Np9xMrtRzkXfIHQc77sXjwKV6t83lOoflo0Gs3LDzXo/54LF7buJ0oLYqV+LN53FL/TmxhX15K3l54j7FIol32/pr3uZLOw8uX6TwkQrJx5b+4Gjp0N4oL/MbbNH/riZNLYYxEnfvmeZbt8CTr6I59PWswe3zP4rhhADRUIVq2Ztf8Uvw6pnqOnYEXbmfs5s3ZQAfFXIiv5Puf2n+SmtSM18hyfFBYfVFSsWpH44GP43U0iPTWO+1eDCL71GnfKS5M0EaPTRqgstWiLc2dSSa//L0YULJvQvPY9TvvdK3Almx25ix33uzDEzS53cFBR292dimf3cTJOAlQ4Dl/E8sHGHJwxkHYt2+E+diG7w+LIu/dfMNlX1vD+OyNYGXqXLZ/0pvfUfdw/v4RBvfvywS8RBdap1NFk53yPIL4yWKgq18JR8zdXozUY1XufbwY8YfG4HwmuWpfceJmDlMLdS0EERj6mtDdUBOE6AcHV6NS2PI07tSbGL5hEI91tbWc8uqnw8/HH1/cqzTw6F/1UQF/9xaoM/Go4KeuWcjxBeEUjffrJRVWnPW1tQvEL0ROkRBNs63kwqJMFFwPDyQJM6jfCMSaCcJ2Tksxr4Vw3rU+j6rnDlSH9XiBgbNuQdzwaEh1wjihd59OnTwmQ7V9oeRAYQHTj9qV6e6ah/p+XQvSR43/F1E++PsVDlv0lse+pMZZfWGMz3gqzKAHjpbbYDbfF9iNzjLJlpNtr0GpUqJ4ANTJI6yZiPt8MowoatCoZ6SVElj55kIj1O0lYuaa4OupUoDB9DCHFceSXbViNnMu/2tTF6e0v+KRRIEv+uILuwVTx0T9+acLXMsKtAx1nnSb9r1X0a+GKS7OW9F2ROzZlB7N0SE869VpAkGUvPIemsHhId9p37sv8AJ1Yps9+Q/FTVZsebeP5cXh3Wnd+n1/S+rLo617Y55kL6in/H41IlX6T+bj8QcZ0a0PzNl1594ufOH0/xxsNtg8SiQ+vcGjxh7i3a0nLt6bgU3Eis0fWy7sRKlM/s5bDGWJzlC0nE5AA7aN9TO3Xk85dRvHrjWQOTWmDSzNXmnafT4BuQYWVL9d/iovoQJ95q/m4oi/T3ulIK7dxbDcby4qp7cm5i03EvpGA99ghLLnbmTGtLvFZv9lcaNKXLg4iUvJ5ls7cic2k+Yyua4xt56n8u/s1vvvGi3uvBAQVpnb16DGyN3XvXeTyK7td8Gp8yOLS8VMIvaYw492mVDDOn/+fhWStIbN3JppHatQFH5PqpaTX/zejFqyssRYSiU8sZGmhjebA9hDGD+1DNe9NRAm16eFui+8yf5IAxMp07enMjc392RL6CC2QducSCfmK0YuqHk4173HltoSlW13UN06RUJCflzWC8OpunZk5Zs/SSFfVYvis4aSu+4A9N5vS3cgcczXwfIdeSiBg9TQCdK8tLYRMQk+HMq73CN6umYTfjIdUG/EyWe3sTncjP2aHZRAb7cu1zz3oareP3U9zRVS78sXeM3z6vInVZlgm73pxPaCn/iIVe3/JWHETY71j0HbKn65DQfrJxMixNlUf3uBWgbf5GtHma1/++hqk7Lsc/m4CX+x6gBYBMwtzxLQUUnWzZ6SRqjHH0jy3Ngb0AxPcFp7n2kJAyuJJ8G98ueEKGbpZCtWnhMj1L0Bz7yZ3BHdqVVHB9VdGimJhsP8DhvQx6H9QfP2KoE9xkGN/mdpnCBMJKRMEUcOzMRkIe6wwicomy0hCUslI1zfzkoEcffIjpSWRqLHAUndntdj6SKRE7mfbteVMm7uEUXamhK2cxrlHpeP/pTJ+vSCN0+vXEZKoBTKKHj8Ki59SIr4bNnI5UQPcZf/6Q0z4tSstzA5w9PmtSHLK/0cikRwVRXKN9vRq58em07dJuHsnfya9aO4EcPhO7h/xYew/cYORjaqg4vrLBbgc/QR7eo7qSfzu0RT5cRQ55evzn2IiVnBjcMcYNg/ZwuX4HP858MdxJq7oiet3/pwDsm+FE5GcSJ2HSdyLDeFBmprHSRZYlxPgIaSH/8KM31qyYdFPdC9XCf/ZIzj6RDce5I7PsySy02O5ffEwc774nWsaCvTnvPFBIu7EbN5LHspHHy3k0OR4Tm1exbKNZ4kuYWx/fUhkjU0kbgyQIaK6aozFjyaonjuXKpv0JQmkv5h/gZSquyozcL0CAGopNYUUrLEtJ8LjgtSRiPfZzvHPpjOgwRZWadxxNz/O9+dzV/2CDfY2Wh49eCLrJCUPghUeczfh2bY8lRxE3Lbtx7N8Vayf1cG7Yzg/j5/Bnpgil1q6pKWQZlqR+oNmMEbcxJidUWjt2mOWnU5a6WztGUaAtGA/Iud8x8DY33nvrob3XySqaezhhmOl8qzw7YUWY6ys1WR2scPL62lOluxw1o2bitfjHC3VLT3ZPuVFAXoRyrszbaI1Wyft4r4GymbjQ8DEwgJVWiqpBS5Sszg3vycf7LLn021rcdHGkywBSKSlpKI1t0TnLkUwscBClcbtVAkqYEA/yHkmowMfe6djVK4a7cYuYMkv2Yx9bw2RZd3GRfEvTRppmaaYmxU0BBQPw/0f9Ouj3/8KbM6iUBR9ioFh+8vYPkM8ExCMtWjc03kmmGDlI0I5CUkjgEZGegkxrM+rCFZ22KkT+bs0dpzEagxeuo6hN2fRt08QyRU68PHCZawvP4Vhyy9T1DnjK5Rk/MqP5gG3o0q4OiwIbQJPnrwsV4p7wlOVM3aWAqTJ0NiiJ4sPzqZTbvDOvvMHH45cy1/ymtPw9YbSS4RE0slvGZ4+hPET1nDkyygO/76CVbvDSJDVYALWLoP5dHxfWtawQNRKqKyrYRRc9BiqqjOQkU0vs3n27dLoWq9SmP8Y0ldPulChIvbG9Ri38SSjc7MjqDEVA7HKzS+lpZAqgVarITUlFQkrtJLuHRRZ3Ni5Hr8xq+hzZyHTAxPzxb3c8fnPGFl96NX4kMWjc5uZe24ryxv14pM5P/BHta/oN/dM7jj/piNg9Fs5rI4UeC4KGjWm8y0wic/9u1E6ScN1Mxi4XgEAtZQUzpUoRzp2qMLaG1EFO9uzYLbty2blgNb4xndDfexbQl+cKCSRkCTi6lAekQcFX18YUjLH5rzLyfZz8O7vT/8ZYQxYtwLbhcNZda1MwkGR0Ty8wS2jycz2jGD5sD+5qQGzBk7UjL5VwDFoGZISyP79IUgPjnNDY//y/+rGeHSz4NCsAfwQlAGIVBu6inUeXSi/x4uc5UoWSU9ieJS78DOKT5fdTkYtPHB3bMU73lf4Suf/hy69zepBg1hRKu0kkZmWjtbcnOeHIQWSGcn65afYN2cS3Y7PwidBIvPGNe5WbIFzeYGwxzmRzbiBM/WeXWfXfQ3UzL22MP3yoCUr6R5nd5/g7oj2NLERiCz0AZrSoUj+pbbE0jiNqIJXdMVCVv9/QQH6JOj3v5LKVyR9ioFB+w30r5LaZ5BYFSp1Oqkj1JjNMkWlAclRgyZGlbPzZii9hBjU5xVEHLq64RIbwuo891EWD8GmLT1b3GX3nPM81QCP/Fn90ynenfsWTqsvc7GkC9aijF9CAbfA5kGLtuQmv4poi0MFI56vPgW7CpTXJBCXItP50k4zf+iAF89KSNmpOVrKxdD1htJLTCYPgjYzN2gry52H8O+Va5mb/DZTjuT7IZaC2se0A9OWj8Xkx48Yceg2qRqR6qM3ssspf0ZDmNF2xEDsTszliO6JaqlSiP8Y0ldPuhT7mKcZF9n07ji2FRCsjAG08FxIqaDtF8GK1p960vH6bo45/ItZ/U7y6Z7oYi7Y9MUHDfF/HWDx711597OW1BTPEJY/yz8UIV5EzN07JknfJEehMEQ0N9i5PgDHiYv4qo8L1exsqVC9Ee1a1dKZOGr422sXUZ3G84W7hkMHrr50VG00fidv4DRyMgOc7DBWGWFZsR7OjnJ/+lDEvlZ1Em7eJlNVm3qV7/F3acxCSotnIRw8/pisG4EEPVFjVb0TkyZ1J+bIcW7rVlOwo9Nni5k/sHbZ/CiAlIjvovFM2aJzdA2oG/fAzfQke09EExsbS2zsY64cOMRNVw+6lpfXAkCh9c88NpVmzs40cMr5uHy8j7jw5fRq9m4pLVRyyLx3m0eV6lD7+S+IFIhE0pk1rLnRGc8Pm2IGaG55szvMmXEzBtHY3pJy1TvyyeQ+aA7tJlD311oK0S8/KouqtBvoQd0n17mme89tIfqUGLn+Bahq1KWm5g63HuizoIjI6v8vya+PbP8rrn5F0KdYGLC/zO0zRKYa43MiRKkxipeQKmaRPiQTMdAIlVZGekkxoM9LBIysquLabzorPOsTuHIjobqbxMXUR0q7T1RSbTp1q4W5CJhUocvbrTG7e5MHpWGfzPEr82ksKVWb07qaCSBibGosc3zLpZj2AyCUo9uoETS2EsGkGr1HvY11oC8XdB9p0Fe+9IyEmBge5X5inqYU7XkfQ9cbSi8RIlWatKOhvSkiGpKib/EoVYWJcd5lSaHtY2SDrUUKD+8+IU2jwqKmO2P75/6SpC769AOECm8xsmcyXlvPUawnSQyUrxdD+upJ1z72wetcHUZ79sXJzggQMbGrTWvXGugdal8gUL7bDL7v8TcLZs7j65m7qTD5O0bVLepPVRUSH8QKNO3SloZVbDBTiZjYN2Fo/xZk3/q7dPq3wn8NImh5dGAm/1pwmVrjVuF96jQ+u1bi6e6Yx5m1MYfYfqUurimH8M4zS9Dw94apfHnYlBGrDnMhJBCfLd8zwsVSZjBXUbNOJaJuRiNVqEOtpJvces33KqpcJrBx7z72zOqMpdMYftu7j73/6UfOq0lSOLvYkyVRnVh1Igj/HTNxvjSPL//IdxQsWuDYtA1t6tsXPRgVGyNcenTDzN8nzz202ujT+Nxpxltd7WW2ASWqv3795KG5GURQSgs6NTfwWzbaB+z5cSuZg6YyrLYKtPfZNn0qe4yG8/PRs5zd+TXNry/kk6XB6K5V9JP7TEZEOGFndjDH9ToLp/zEJd3JVgn00Y9M/0KkWvt2VL4SiL7fICg6cvp/YfoUwf+KrZ9cfYqLPvtfh32GEDDabIF5TBYpqxNI+CENzXVzLA89/xZD6SVFnz65qFvxjc9lLp/ezn8G2+H39Wimeec8//GC4urz7BxLJ/9CQp/VnAgI5LzPBiZY7Ofzr/fwqFQmM/LGr6zzvzJvnxGj//Qj5NwZjnzTBSsBVI5DWXngOGcPz6KdmQtTdp3i5P4lDK6eL/jpsd9g/MwK5I9DFZi2/STBZ7Yx0Wo/0747TJ4Nfj3l60dF/VE/cfDEEb7tYkbDCZvwPbqbOd3lbjaWNQLlXIbxn+0nOH/+POe859IwZAFLj+U84P6cwtqHlJP8vPoe3Vb7EhLkw/bpDTjvHfTq8yB69VNRb/AIWoRvY+ffxYw6hZQv23+KizaGvV9NYkN6HxZ6neHihQBObf2ekc3sXj2FKgBVlb78+xtX/Od+x5EnWp5FrGPmBoEPF3xEU7k/VqY3PhhTrdvH/LjlEIEXQwk+uIQ+z7YyZV4+/1b4n0eoU1/m22eE8vRfuYteJ4cyYffjgg4LFRRKgIr6H23l90ab6D/Zu+xvr/mnYdwYzx3LqLD8XWae/Ge9A0FBQUFBQUFBobjIWVwDAjZtxjO2wRm2HFUWKgplgYbrm77Hq/JYPmn7puzqvSmoqTXUE49bS1l+WlmoKCgoKCgoKPzvYPBkRVXzfX7+bQLOmhvsnjeNpWdi9T+EqKCgoKCgoKCgoKCgUAoYXKwoKCgoKCgoKCgoKCj8fyDzNjAFBQUFBQUFBQUFBYXXi7JYUVBQUFBQUFBQUFB4I1EWKwoKCgoKCgoKCgoKbyTKYkVBQUFBQUFBQUFB4Y1EWawoKCgovAaMHFzoNOB9ho4Zw3ujB9OiqrpI6f/dCFi6jGLZ7pOEXAzhUuB+vmqr+4JYQ+n/pRi1Z96pfUxxfvVVhQpvAEr7KCi8FnIXK8ZU7zaJZduPEXwxlEv+x9m7ZjwtzPNmLksE2/6s2T+d5moVDT7Zxq9DKry+d22I5ajvMZGlXv5c2TGeOvnjjqH0MsTYYwmXIy6z56O6OW++FazovewcV8P28FkDnYqoXZh28AoXV/fFTkc4wWEoGy5s4H2d18kbtZ/LmRMzaV3UuZBxIz7ZeZGInfk0KC19TJvw+Y69fNuxnM6bwSsyfP0lrkWGczX8Ehf99rN+9kAaWbw0UrRvx8crvPAPucTlgENsnPUOdXPnMQb1e1F+BFcjrhB2zgevVZNxr270ovyyRrBtyfjle/APucyVoEOsn+5B3q9X4TjiV44se4cqZbK9oKf/y9WnEP8rDQzrU1L02P+cEttnTs2WLbF+5Mu+Db+zbfNeLj/MlpduWhnnHoMYNOZDho0eilu72ljq+oFggk3t5nQcOIph77piXaz66aNwfQSHoWy4FMG1iHAiL/rjs305U/vUR6d7ykOoQJ/PP6XuhRn0aNUC1y7DWB7yTH56GaNy+ox920oQ2/RRWvGzWKioP3oNh3zOcPFKOJEXA/A76sVct3/Wu67Krn1Eqo7cRHhkBNeef8KOM6tlUQdPBQWFkiCCgF232Wz4vjNxmz15p3N7OvYbz7e/n+JGev7sZYdJ05bUjgzmL609zZtJXAyNe00vv1NRf/wa1oysSOTZcFLyJxtML2skMqMfYNW+Q85E1bQlnV1TeRSb9203aqcedOUmD5p40Nm2LIYZNfVGzuBt6RbxeRqmtPRRUWfEdAY/Xs9K/6R8bZ/FufluODVpQ/cPVnCn+UwWj3PKWXyI1Rj6wxIGaXcyqXcXugydz8WG01nt2YqcuaYc/TLw+bI1DRu70rrXp+zU9uWHGb2KOSktIkI53KYvZJj0J+Pc29Bh1F7Mhi9g0chaOfYBoOHujh854jgFTzebUp5EyOn/hvUpM/+TpU9JkGN/KdgnmmFuLpHwIIZnWkCTRbauCxaabkL1dt2pL0Xg++cGdh24jtq5Kx1cnvuBiI3rW3RtbEF81BOydIosHWTokx3MPLemNOk0gM833af5jN9Z+Z5j0dpHtMPBXsO14FDiNCBlppKma4yh9DLGuGp1KpbJRoGc+CkhldlgqOH6xon0cuvJnNPpXP15JN16DmCuzz/r5bNl1z4CdhVsiN44iqYuTXByaYJTs7dYcEF3o6Es20dBQQFARFWTQR95EPvrdL47EM6jlHRSYm8TGnydRAnUjSfj7TuPLhYvL1LVnYBXwEr6PZ+tqBzoMGER2476c/lKKBd8/uQb9wqy7jFTN5nIZm9vDn3Xi4odvmTPwa180bIWQ5bvYcN456INeMVCw/V1o/EYOZdNoXEF1NlQei5iNYatO4Pv7PaU7s0JAkRfJsyhIx0riJg060SLeyFcydTNo8a5RzfEUyvZHNGEnp1tiz6hNVB/leNQZr37iJ//vJavbJn6GELtwuBBlfHbcYzYwgK/NoOEW6c4EBhL5RpVUQOqWr0Z3DSSdQu2E/ookYSoANYsP4i610DamYM8/XKRNKQ/jcT7RCSqipWw0zXGgD7FxrQ1b3WM4c9lXkTGS9To4U7NDA2Ne3anhq7zZ/3F7r3RdBnqgUOxRS4AA/0/D4XqI8P/iqufXH2Kiyz7i2+fYFmfDoPeY8D7fXGyNcbR/QOGjR3LsOEdqSwaTkddGcfqqVwPvkrcMwmrWrUoly1RvlZNrAQALQmXDrBv/xmuxjx7tV4lRZY+ABLZqTGEH1zM5wsv4jTuA/LcpVWIPmKlfizedxS/05sYV9eSt5eeI+xSKJd9v6a9keH0UkHP+KVq/BFbfPwJWNwTG6dJ7AsJJezSBfZ/ljs2qVvhueMoZ4NCiDjzbwa+9RVbj54iwP8o8zqbvfyOQuyXGz8dukxjw8HTBJ8/w+G1n9HJIZ/zF1r+Px/Bujljl+zgZOB5Lp735+SuhQyqlWO/wfZBwK7dR6zcfpRzwRcIPefL7sWjcM3pPC8pVD8V5e1teBz9kEyNBk3uJ/+LsYvdPnL9pwQIVs68N3cDx84GccH/GNvmD8XZMsd+Y49FnPjle5bt8iXo6I98Pmkxe3zP4LtiADVUIFi1Ztb+U/w6pHqOnoIVbWfu58zaQaUTfxUUZCIKlk1oXvsep/3uocmfCmRH7mLH/S4McbPLHQhV1HZ3p+LZfZyMkwAVjsMXsXywMQdnDKRdy3a4j13I7rC4Vzp0QWRfWcP774xgZehdtnzSm95T93H//BIG9e7LB79EFFinUkeTnfM9gljwYGEoHUBK4e6lIAIjH5f67qYgXCcguBqd2pancafWxPgFk2iku63tjEc3FX4+/vj6XqWZR+einwroq79YlYFfDSdl3VKOJwivaiBHHwOo6rSnrU0ofiF6jvNEE2zreTCokwUXA8PJAkzqN8IxJqcpkhUAACAASURBVIJwnZOSzGvhXDetT6PqucOVIf1eIGBs25B3PBoSHXCOKF3n06dPCVBVroWj5m+uRmswqvc+3wx4wuJxPxJctS6543EuWh4EBhDduH2p3p5pqP/npRB95PhfMfWTr0/xkGV/CeyTUq7jv2sbXpv3Exmfwd0TG9j6229s/fMsD7WG0wVLG6y0ccQnS4h2LrRqkEroofPEWNlS7nln02pzdsEFodQXK7L0yYNErN9Jwso1xdVRp4EK0Uf7aB9T+/Wkc5dR/HojmUNT2uDSzJWm3ecTkGU4veToH7804WsZ4daBjrNOk/7XKvq1cMWlWUv6rsgdm7KDWTqkJ516LSDIsheeQ1NYPKQ77Tv3ZX6ATiwrxH7AcPxU1aZH23h+HN6d1p3f55e0viz6uhf2uo2tr/x/NCJV+k3m4/IHGdOtDc3bdOXdL37i9P0cbzTYPkgkPrzCocUf4t6uJS3fmoJPxYnMHlkv70ZoofqZYGVphsuk7QSdCyLgyGYW/qsV9roNVZL2kes/xUV0oM+81Xxc0Zdp73Sklds4tpuNZcXU9ljmZMC+kYD32CEsuduZMa0u8Vm/2Vxo0pcuDiJS8nmWztyJzaT5jK5rjG3nqfy7+zW++8aLe/ICgoJCqaAWrKyxFhKJTyxkaaGN5sD2EMYP7UM1701ECbXp4W6L7zJ/kgDEynTt6cyNzf3ZEvoILZB25xIJ+YrRi6oeTjXvceW2hKVbXdQ3TpGQf1f3dWBosNeXLiUQsHoaAfn/XxoImYSeDmVc7xG8XTMJvxkPqTbiZbLa2Z3uRn7MDssgNtqXa5970NVuH7uf5oqoduWLvWf49HkTq82wTN714npAT/1FKvb+krHiJsZ6x6DtlD9dB336GMDIsTZVH97gVoG3oRvR5mtf/voapOy7HP5uAl/seoAWATMLc8S0FFJ1s2ekkaoxx9I8tzYG9AMT3Bae59pCQMriSfBvfLnhChm6WQrVp4SYmWP2LI10VS2GzxpO6roP2HOzKd2NzDFXAzonQJp7N7kjuFOrigqul85IYbD/A4b0Meh/UHz9iqBPcZBjf5naZwi1EarsbLJFG+q3dyL7kjc3ExyoqjJCLYLMFUSxkaNPfqS0JBI1FljqPrhSVvqUlNIYv16Qxun16whJ1AIZRY8fhcVPKRHfDRu5nKgB7rJ//SEm/NqVFmYHOJr2PI+M8v+RSCRHRZFcoz292vmx6fRtEu7eyZ9JL5o7ARy+k/tHfBj7T9xgZKMqqLj+svsUql8y3tM9CBCSiEs3wqHFcOYvWcGiZ4MZu/V+zoZsqbWPHv8pJmIFNwZ3jGHzkC1cjs+p34E/jjNxRU9cv/PnHJB9K5yI5ETqPEziXmwID9LUPE6ywLqcAA8hPfwXZvzWkg2LfqJ7uUr4zx7B0Sfy44GCQmmgllJTSMEa23IiPC5o5JOI99nO8c+mM6DBFlZp3HE3P87353NX/YIN9jZaHj14IuskJQ+CFR5zN+HZtjyVHETctu3Hs3xVrJ/VwbtjOD+Pn8GemCKX+t+HAGnBfkTO+Y6Bsb/z3l0N779IVNPYww3HSuVZ4dsLLcZYWavJ7GKHl9fTnCzZ4awbNxWvxzlaqlt6sn3KiwL0IpR3Z9pEa7ZO2sV9DRjnz1AqCJhYWKBKSyW1wEVqFufm9+SDXfZ8um0tLtp4kiUAibSUVLTmlujcpQgmFlio0ridKkEFDOgHOc9kdOBj73SMylWj3dgFLPklm7HvrSFS99bksiAthTTTitQfNIMx4ibG7IxCa9ces+x00vJ/tyaNtExTzM0KnNIUC8P9H/Tro9//CmzOolAUfYqBYfvL2D5DZGeRrbbApmE7nIRwfK4mIZlWQ63N98xLGWFYn1cRrOywUyfy9//LjlMRKcn4lR/NA25HlcG5hjaBJ09elivFPeGpyhk7SwHSZGhs0ZPFB2fTKTd4Z9/5gw9HruUvec1p+HpD6SVCIunktwxPH8L4CWs48mUUh39fwardYSTIajABa5fBfDq+Ly1rWCBqJVTW1TAKlh9DpfR4ckZSDTEXNrLMqz9burXFZtsu4qDk7fOcwvzHkL560oUKFbE3rse4jScZnZsdQY2pGIhVbn4pLYVUCbRaDakpqUhYoZV076DI4sbO9fiNWUWfOwuZHpiYN+7p+f5SSVdQANRSUjhXohzp2KEKa29EFRywnwWzbV82Kwe0xje+G+pj3xL6fEdTSiIhScTVoTwiDwq+vjCkZI7NeZeT7efg3d+f/jPCGLBuBbYLh7PqmuKpeUgJZP/+EKQHx7mhsX/5f3VjPLpZcGjWAH4IygBEqg1dxTqPLpTf45UbZLNIehLDo9yFn1F8uux2MmrhgbtjK97xvsJXOv8/dOltVg8axIpSaSeJzLR0tObmPD8MKZDMSNYvP8W+OZPodnwWPgkSmTeucbdiC5zLC4Q9zgmhxg2cqffsOrvua6Bm7rWF6ZcHLVlJ9zi7+wR3R7SniY1AZKEP0JQOmoc3uGU0mdmeESwf9ic3NWDWwIma0bdePWZXW2JpnEZUwSu6YiGr/7+gAH0S9PtfSeUrkj7FwKD9BvpXSe0zhJQSR5LYitatn3BpXziJWlDb2VMuOYHkVypb+hjU5xVEHLq64RIbwuo891G+oRRl/BIKuAU2D1q0ZWGyaItDBSOeH6MJdhUor0kgLkWm86WdZv7QAS+elZCyU3lalHoaut5QeonJ5EHQZuYGbWW58xD+vXItc5PfZsqRfD/EUlD7mHZg2vKxmPz4ESMO3SZVI1J99EZ2OeXPKB9NtgYpO+vlqUxJ2+cFhfiPIX31pEuxj3macZFN745jWwHByhhAC8+FlArafhGsaP2pJx2v7+aYw7+Y1e8kn+6Jfmm/nu8vlXQFBUBEc4Od6wNwnLiIr/q4UM3OlgrVG9GuVS2diaOGv712EdVpPF+4azh04OpLR9VG43fyBk4jJzPAyQ5jlRGWFevh7Cj3pw9F7GtVJ+HmbTJVtalX+R5/l8Ys5HUj2NHps8XMH1i7bH4UQErEd9F4pmzROboG1I174GZ6kr0noomNjSU29jFXDhzipqsHXcvLawGg0PpnHptKM2dnGjjlfFw+3kdc+HJ6NXu3lBYqOWTeu82jSnWobZI/RReJpDNrWHOjM54fNsUM0NzyZneYM+NmDKKxvSXlqnfkk8l90BzaTeDzI3goVL/8qCyq0m6gB3WfXOea7hPEhehTYp6FcPD4Y7JuBBL0RI1V9U5MmtSdmCPHuZ2voqoadampucOtB/osKCKy+v9L8usj2/+Kq18R9CkWBuwvc/sMkf2IO3dS0cRHE5MmYlSuOi4tHUm7dZukAuYVpY4BfV4iYGRVFdd+01nhWZ/AlRsJ1d0kLit9SorM8SvzaSwpVZvTupoJIGJsaixzfMulJPYL5eg2agSNrUQwqUbvUW9jHejLBd1HGvSVLz0jISaGR7mfmKcpFOlQ0tD1htJLhEiVJu1oaG+KiIak6Fs8SlVhYpx3WVJo+xjZYGuRwsO7T0jTqLCo6c7Y/rm/JKlLYfqpHOnQqx31K1ljZmqNY9vRTB5oT9CxoNzTfUrePoYwpK+edO1jH7zO1WG0Z1+c7IwAERO72rR2rYHeofYFAuW7zeD7Hn+zYOY8vp65mwqTv2NUXZ1ft9Dz/aWSrqAAiKDl0YGZ/GvBZWqNW4X3qdP47FqJp7tjHmfWxhxi+5W6uKYcwjvPLEHD3xum8uVhU0asOsyFkEB8tnzPCBdLmcFcRc06lYi6GY1UoQ61km5yq4T3oRcVlcsENu7dx55ZnbF0GsNve/ex9z/9eP5qEkPpAIgWODZtQ5v69kUPRsXGCJce3TDz90H3lQPa6NP43GnGW13tZbYBJaq/LH0MoLkZRFBKCzo1N/BbNtoH7PlxK5mDpjKstgq099k2fSp7jIbz89GznN35Nc2vL+STpcHorlX0k/tMRkQ4YWd2MMf1Ogun/MQl3clWCfTRTwpnF3uyJKoTq04E4b9jJs6X5vHlH7fzLapEqrVvR+Urgej7DYKiI6f/F6ZPEfyv2PrJ1ae46LP/ddhniEweBJ3gUlJ1Og/7gEHvdqB8jD8BYQkv9kAFB1fcBw2mV/saGNk3xW3QYHp3q1/gYrPo6NMnF3UrvvG5zOXT2/nPYDv8vh7NNO+c5z9eUGb6lBR541fW+V+Zt8+I0X/6EXLuDEe+6YKVACrHoaw8cJyzh2fRzsyFKbtOcXL/EgZXzxf89NhvMH5mBfLHoQpM236S4DPbmGi1n2nfHUb3kSl95etHRf1RP3HwxBG+7WJGwwmb8D26mznd5W42ljUC5VyG8Z/tJzh//jznvOfSMGQBS4+99H8ovH1IOcnPq+/RbbUvIUE+bJ/egPPeQa8+D1KofiKVunzG6l3HOR98kp1zuxD32yRm7It56d8laB/Z/lNctDHs/WoSG9L7sNDrDBcvBHBq6/eMbGb36ilUAaiq9OXf37jiP/c7jjzR8ixiHTM3CHy44COals6PlSkoyEKoU7+BvP05oTz9V+6i18mhTNj9uKDDQgWFEqCi/kdb+b3RJvpP9i7z22v+cRg3xnPHMiosf5eZJ/9Z70BQUFBQUFBQUCguchbXgIBNm/GMbXCGLUeVhYpCWaDh+qbv8ao8lk/avim7em8KamoN9cTj1lKWn1YWKgoKCgoKCgr/Oxg8WVHVfJ+ff5uAs+YGu+dNY+mZWP0PISooKCgoKCgoKCgoKJQCBhcrCgoKCgoKCgoKCgoK/x/IvA1MQUFBQUFBQUFBQUHh9aIsVhQUFBQUFBQUFBQU3kiUxYqCgoKCgoKCgoKCwhuJslhRUFBQUFBQUFBQUHgjURYrCm82qvqM23Acv5O+nA26SPjm0ZTW+7IUFP75ZDEzMZGJpfOGTIU3DaP2zDu1jynORXvVo4KCgsJ/E7nTPmOqd5vEsu3HCL4YyiX/4+xdM54W5nkzlyWCbX/W7J9Oc7WKBp9s49chFV7fuzbEctT3mMhSL3+u7BhPnTzjghGVO3zIws0H8Q++yOWAQ2yc1Yuaxrp5yg5jjyVcjrjMno/q5rz5VrCi97JzXA3bw2cNdCqqdmHawStcXN0XOx3hBIehbLiwgfd1Xidv1H4uZ07MpLX6Zb6SINi2ZPzyPfiHXOZK0CHWT/egulH+XDIwbcLnO/bybcdyL9tec511H/Sgczc3+i4KRvel8v8tGNZPheOIXzmy7B2qlMlCTU//FysyfP0lrkVGcDXiCmHnfPBaNRn3/A1ciP+VBob1KSl67H9OGdoHEnUz05mfFM/ZpHRq5k/+f6dwfQSHoWy4FMG1iHAiL/rjs305U/vUx0K2RhL1M9NYlJSAT0IcZxISWZWWSfV8uSpnpTMvOZFjCXGcTUhgSna+DGWMyukz9m3LPzaUEnrHn7JGRf3Razjkc4aLV8KJvBiA31Ev5rr9s951VXbtI1J15CbCIyO49vwTdpxZLUtn8GyTlsDvzzSv7Bp3Sk1gbYb2lf//0yh5fFBQyEEEAbtus9nwfWfiNnvyTuf2dOw3nm9/P8WN9PzZyw6Tpi2pHRnMX1p7mjeTuBga95pefqei/vg1rBlZkciz4aTkTxasqNeyJk92zWa4R0c6vb+cqHZzmTe42msKJBKZ0Q+wat8hZ6Jq2pLOrqk8is37thu1Uw+6cpMHTTzobPsaI4FQDrfpCxkm/ck49zZ0GLUXs+ELWDSyVs7iSjYq6oyYzuDH61npn/Sa2v4NQJZ+Gu7u+JEjjlPwdLMp5UmEnP6fgc+XrWnY2JXWvT5lp7YvP8zolWfSXmb+J0ufkiDH/jK0D6j7LJnFGVquGalJLd2iSwEZ+mQHM8+tKU06DeDzTfdpPuN3Vr7nKLt9zCSBQDMrBlrb8ZaVGU+zUvkiQ/vCz22yUvkpLZv7ppa8Z21HRxsbVpbOXFE2xlWrU7FMAr6B8QcACanMAqKG6xsn0sutJ3NOp3P155F06zmAuT7/rJfPll37CNhVsCF64yiaujTByaUJTs3eYsGF0lktPxFFrLVSvrmEhI0k8VQQ/jveaVfC+KCgACCiqsmgjzyI/XU63x0I51FKOimxtwkNvk6iBOrGk/H2nUcXi5cXqepOwCtgJf2ez1ZUDnSYsIhtR/25fCWUCz5/8o17BVmTeXWTiWz29ubQd72o2OFL9hzcyhctazFk+R42jHd+DQ6t4fq60XiMnMum0LhX6yzF4bf8axbtDeFufBpJt3zxPp9CjTpV89ZNrMawdWfwnd0eU93/lxgBoi8T5tCRjhVETJp1osW9EK5k6uZR49yjG+KplWyOaELPzrZFn9AWt/6mrXmrYwx/LvMiMl6iRg93amZoaNyzOzWK0nhqFwYPqozfjmPEFnGUVFfqzKfLd3EqIJBgvwOsn9mXeuYA5ei3Ooh1A/LrocJlyj4OT22K7DlPcfUxhFz9sv5i995ougz1wOEVJy0BBvp/HiQN6U8j8T4RiapiJexe1EOG/xVXP7n6FBdZ9pehfcAN03IMtLJgu1pEyK85IEjZDEhLYndCPL4JCfyWlkHDfPnss9JYnZSAT0I8O1LSaVdasxxZ+gBIZKfGEH5wMZ8vvIjTuA9oqytEofoIXDYxw8tIRYIAqSojTquh4osJnIZ+z7KIMLPkFyMVcbnCl85UMRc945eq8Uds8fEnYHFPbJwmsS8klLBLF9j/We7YpG6F546jnA0KIeLMvxn41ldsPXqKAP+jzOts9vI7CrXfwPiTi0OXaWw4eJrg82c4vPYzOjnkc/5Cy//nI1g3Z+ySHZwMPM/F8/6c3LWQQbVy7DfYPgjYtfuIlduPci74AqHnfNm9eBSuVvl6cKH6qShvb8Pj6IdkajRocj+63Uuwcua9uRs4djaIC/7H2DZ/KM6W8sp/IgqUk7So0DIgJZ7DaVkYo8VOEnkivhJlioW++hl7LOLEL9+zbJcvQUd/5PNJi9njewbfFQOooQLBqjWz9p/i1yHVc/QUrGg7cz9n1g4qYvw1EB8UFAwgCpZNaF77Hqf97lHQbc/ZkbvYcb8LQ9zscgdoFbXd3al4dh8n4yRAhePwRSwfbMzBGQNp17Id7mMXsjssTtauQPaVNbz/zghWht5lyye96T11H/fPL2FQ77588EtEgXUqdTTZOd8jiIUOFi9QVaeJszm3rt3JWzcphbuXggiMfFzqtyoJwnUCgqvRqW15GndqTYxfMIlGOoFM7YxHNxV+Pv74+l6lmUfnot+qUsz6qyrXwlHzN1ejNRjVe59vBjxh8bgfCa5al9zxRBaqOu1paxOKX0gRj/NU9RmzbAHdopcypEs72vaZwWlHT9Z82ZFyQip3bsdSpWY1RLEyb01bzA8jGmOEGY41K3Dv5l35/lVMfQwhXz8tDwIDiG7cvlRvzzTU//MiYGzbkHc8GhIdcI6o5xfI8b9i6idfn+Ihy/4ytO85Od+df4cVQItHWgpjtcbMsbbFzdoKLymdH9KzeLl/pKFrlsAaKxvcrcuxUcjg27RM7HRKKS6y9MmDRKzfScLKNcXVUaeBZOpjnZ3Bu9kiZ4xENOQs1FpoVERL6axISmBfYiK/p6bTSs7gIgv945cmfC0j3DrQcdZp0v9aRb8Wrrg0a0nfFbljU3YwS4f0pFOvBQRZ9sJzaAqLh3Snfee+zA/QiWX67Dc0/qhq06NtPD8O707rzu/zS1pfFn3dC3tdH9RX/j8akSr9JvNx+YOM6daG5m268u4XP3H6fo43GmwfJBIfXuHQ4g9xb9eSlm9NwafiRGaPrJd3s7FQ/UywsjTDZdJ2gs4FEXBkMwv/1Qr75w0lOtBn3mo+rujLtHc60sptHNvNxrJianssdYsppPxnokiaVoutlI2LViRZk00tScJeK/CkQGcoIgbrJ2LfSMB77BCW3O3MmFaX+KzfbC406UsXBxEp+TxLZ+7EZtJ8Rtc1xrbzVP7d/RrffePFPXkBIR+FxAcFBQOIgpU11kIi8YmFRH9tNAe2h9B0UB+qieQETndbfPf7kwQgVqZrT2dubF7EltBHpGU+I+HOJSJjiuDJqno41bzH1dsSlvXqor5xnYQCdhjLHEF4dcc0DybUe38WH1jsYY13TN7FmJRAwOppzNp1Q+agXgSETEJPh1K36wjebpeEn99DdEc1tbM73Y38OBGWQexpX6419aBrnnt0XPli7xnOBfhzLsCfs8sKuO++uPU3M8fsWRrpqloMnzWc1HU/sOdmMulG5pjLPrYAI8faVH14g1vP8qfoR1W3B71rXuD3NQE8zgJNUgSbf/JG27MfbU213L15jwqO1TG378igt1rS4T0PnEyqUqtaHLdup8i/1aG4+hiiCPpp7t3kjlCdWlVKL8gb7P8AmOC28DzXIsMJO7uNjy338f2GK2Tkphr0Pyi+fkXQpzjIsb9M7ctH/m4parPonyWyw8yUcAEkQcVRE2M0WZk0eZFL4Izpy/QjJsYkZmfiKtu5C0eOPvmR0pJI1FhgqXtjugF9OqQlcDwhnsMpGSSZWrJBnXOtqNViL2XTSqtmoZUN/ayt+EXIZH5aBg75yigWpTF+vSCN0+vXEZKoBU0GGbrHPwbsBwoff6REfDds5HKiBunZXfavP0RCm6600Dm4kVX+PxKJ5Kgokmu0p1e7mlgJWSTcvcOTIqzINHcCOBwcRXI2aOLD2H/iBpVqVMm3WClMv2S8p3vg1r0rbdp25d2vfbH9YAWLhubcBi5WcGNwxxg2L9rC5fhspGd3OfDHcTTde+Kq+1xdIeVrBJGnkoS9JpvaKhOOkU0TSYutJPKkQGcoGnLql30rnIjkRB4+TOLehRAepMXyOMkC63I5FUgP/4UZv2kZs+gnVs5ugf+c+Rx9Ij8e5KfA+KCgYAC1lJpCCtbYlhPhcUFhTiLeZzvHP5vOgAZbWKVxx938ON+fz901Emywt9Hy6METWScpeRCs8Ji7Cc+25ankIOK2bT+e5ati/awO3h3D+Xn8DPbEFLnUMsKUuoP/wy8fZPPT+OWcT82fXoYIkBbsR+Sc7xgY+zvv3dXw/otENY093HCsVJ4Vvr3QYoyVtZrMLnZ4eT3NyZIdzrpxU/F6nKOluqUn26e8KKBkpKWQZlqR+oNmMEbcxJidUWjt2mOWnU6a7Hs1BEwsLFClpZJaxAmWaGOLdXIMj3U2MbWPHxJj1IjyVpBy5w5xVWrSsG19ap7/A6/a7rSvF0HNivcJuFuQv79miqKfJo20TFPMzUovyBvu/5DzzEoHPvZOx6hcNdqNXcCSX7IZ+94aIrP1+18Rm/NViqJPMTBsfxnbZwBB0lJe0jAqJYFhz/8pSZhghKVE7upGJFZ46ROSKBKPBusX6cXHsD6vIljZYadO5O8i7DgFm5XjfVOJctps+qcns0qyZIKpOmdMEYz409SYqFxbz5uaEJWURWPJBN8S2lei8Ss/mgfcjirCLFou2gSe6MzOpbgnPFU5Y2cpQJoMjS16svjgbDrl/ihM9p0/+HDkWv6S15yGrzeUXiIkkk5+y/D0IYyfsIYjX0Zx+PcVrNodRoKsBhOwdhnMp+P70rKGBaJWQmVdDaNg+Y4jpceTM5JqiLmwkWVe/dnSrS0223aRWKEi9sb1GLfxJKOfXyCoMRUDsTIGQ8dcWlFFrJRFvWwtyWpTgrWZDMrSUk4Qefq8iob01ZMuGKofIKWlkCqBVqshNSUVCSu0kqCzH5rFjZ3r8Ruzij53FjI9MDFv3NPz/QXxSnwo4vUK/5uopaRwrkQ50rFDFdbeiCo4YD8LZtu+bFYOaI1vfDfUx74l9PkzE1ISCUkirg7lEXlQ8PWFISVzbM67nGw/B+/+/vSfEcaAdSuwXTicVdfeIE8VLHAe/SM/jchg7YTP2fp3Ebf/S4OUQPbvD0F6cJwbGvuX/1c3xqObBYdmDeCHoAxApNrQVazz6EL5PV65QTaLpCcxPMpd+BnFpxetnfSgeXiDW0aTme0ZwfJhf3JTA2YNnKgZfasIx8QSmWnpaM3NMZc/hgCgjX1CXDlnKloIPL+JXqxYhYpZccQmS2ju3iTKvjUe7Rryl/88ziS8y6S3mmCceJvbyTIG+jKmSPqpLbE0TiOqqCs6Pcjq/y/QkpV0j7O7T3B3RHua2AhEJuj3v6I+f5SfIulTDAzab6B/ldQ+Q0iCwFNBzTYrK7wKvS1Ei730cmUiaLXYIpBYxL5UEAb1eQURh65uuMSGsPrFfYKGyRREYgSIEVX8bJLJ/mdZVDNVc0cUeUQWFXQXXpKEGkrnBKEo45egO4ErCC3aUqlUPkRbHCoY8dxiwa4C5TUJxKXIdL6008wfOuDFsxJSdipPi1JPQ9cbSi8xmTwI2szcoK0sdx7Cv1euZW7y20w5ku+HWApqH9MOTFs+FpMfP2LEodukakSqj97ILqf8GeWjydYgZWehAaTYxzzNuMimd8exrTjBQBB4gpbW2RJ/mYpcE1U4ZmSTJapzx24M66sn3VD9jAG08FxIqaDtF8GK1p960vH6bo45/ItZ/U7y6Z7ol/1Pz/e/SgHxoUjXK/yvIqK5wc71AThOXMRXfVyoZmdLheqNaNeqls7EUcPfXruI6jSeL9w1HDpw9aWjaqPxO3kDp5GTGeBkh7HKCMuK9XB2lPvThyL2taqTcPM2mara1Kt8j79LYxZSWgg2tPpkLb8MT2X1pK/Zd1/E3NwcczMTVLoGCnZ0+mwx8wfWLpsfBZAS8V00nilbrucZpNWNe+BmepK9J6KJjY0lNvYxVw4c4qarB13Ly2sBoPj1fxbCweOPyboRSNATNVbVOzFpUndijhzndhGaMfPebR5VqkNtk/wp+tHcOcaBv5sz9uNOVDIG0cqJ9yf2wdj3IOeegZR0hzsZTrRziuZ8SDwR569Qo3MH7KNuUqSDleLqY4gi6KeqUZeamjvcelCUihtAVv9/icqiKu0GelD3Eg9XFwAAIABJREFUyXWuJUry/a+4+hVBn2JhwP4yt88AWtEYb7WG99IzaJA7jzCWNDTP1uRMNACQ6PQsg0YSIGnxyMiknJExFwtovyJjQJ+XCBhZVcW133RWeNYncOVGQnV3lQvVR0PLrGxqaSXMJQlrTRbDM7JJVal5DEiCMQeNtAxLy6C+BKKkocezTCoYGXOlNOyTOX5lPo0lpWpzWlczAUSMTY1ljm+5FGq/DIRydBs1gsZWIphUo/eot7EO9OWC7uN9+sqXnpEQE8Oj3E/M05Si/UCBoesNpZcIkSpN2tHQ3hQRDUnRt3iUqsLEOO+ypND2MbLB1iKFh3efkKZRYVHTnbH9nV7VqDD9VI506NWO+pWsMTO1xrHtaCYPtCfoWBDJEmgf++B1rg6jPfviZGcEiJjY1aa1aw3yDGWFlY/II1Hzf+ydd1gUV9uH79ldQJoiImos2AuIil3sgpio0ViJPdHYoknUaDRq1LxqTGyxxiQmkRh7RxErICBNpCglauwdJfSiwO5+f4C6ILs7wOKXvO/c17XXpZwzM+f5nXOeU2cOrZVyYuTwXK4gWZlHdUF4NVjRp6+OcNHp04pAlZ7z+Kb3X6yYv5SF8w9SdcZyxjbU2OOm4/mv0OEfRF0v8b+ODFQ8PjafD1dcot7ETXid88fnwEZmudoVKsyqBG/2Xm6IU4Y3XoV6CUr+8pjNFycqMGrTCS5GhOCz8xtGOVqIdOZy6jaozr0bD1BXbUC9tBvcLPSlq/JH7jiZ3494cnhBNyzsx/PrEU+OfDeQ6jIQbPow7aPW2NRyY+nhYKIuhuf/Qn9ihOa3EmXm2LXsQIfGNq87wnLDCMfePTEN8iFCY7FH9cAfn9uteLuHjcg8oAzpz+D86lmsudeVTWdDCdo3H4fopXzxx60SzXwqb4QSmtGGrq2LfCJE0ZJpf3jh538en0XOmLaaydHzvpw9PJ8eZoDyFts/n8uZatP442wwF059j9uTH5j2rT9pakB5h+v3a1FfFcGFJyqeXQrneq36KO7cev1rV7ootT76EKufjFrOnahxOYSSfoNAN2Lqf8E7K3GxxATuY7HTNVbO/IHo3BKUv1LrJ1af0qLL/jdhH8jzsvkhLZU/snIxVz5jY1oqOzJfvJMhw9vcgt1CDkvSkjmXksyxtEzc89QazzFir7GKT9JT8ElN5UO1CYtNjUl+GV4WdOlTgKIdX/lc4pL/Xr4bZk3AwnHM8XpceJVCqz5q6uVksbrgS2aeGVk4ys2YY2ZE/k5bAV8zC/YIz1mTmoxfajojMGGBmaHsE9d+5V74haWeRozbFUBEWCAnv+qOpQByO3c2HjvD+RML6GTqyMwD5/A7uoZhRU+u1Wq/7vYHgNwQ/vCuypy9foQH7mGq5VHmLD/B35r+S8f9dSOn8dgfOH72JF93N6Xp5O34njrI4l5iJxvLG4GKjiP4bu9ZLly4QJjXEppGrGDt6ZRCawDa8ocMP37afJeem32JCPVh79wmXPAKffm+3Uu06iejevdP2XzgDBfC/di/pDtJv05nnmfBO6uqBI58OR2P7P6sPBRI5MVgzu3+hjGtrClUAnTc/4mgxlyuIF4AtUzBJUGFTCbDIPs3xKZPC/K3BvCfr5wIWrKck09VPIvbynwPgY9WTKGl5jtTuhDjHyQk9CA0aPxivk4PQhXe23iAvn7uTD74pLjFQgmJMiCn8ZTd/NZsO+/N8Cr37TX/OoybM2vfOqquH8R8v3/XGQgSEhISEhISEqVFzOAaELDqMIkJTQLZeUoaqEiUB0qubf+GQzUmMK3jP2VW75+Cgnrus3C7uZb1/tJARUJCQkJCQuJ/B70rK/K6o/np18k4KK9zcOkc1gYmSst3EhISEhISEhISEhLljt7BioSEhISEhISEhISExP8HIreBSUhISEhISEhISEhIvFmkwYqEhISEhISEhISExD8SabAiISEhISEhISEhIfGPRBqsSEhISEhISEhISEj8I5EGKxISEhJvAHXD52SsTCV5RwrJ29LIciz8bRN94RL/gxg5s/ScJzMdSnbUo8SbRsDCcSzrDvoRERlBdMhRvuxY5IBjCQmJUlMwWDGmds/prNt7mvDIKKKDznBkyyTamBWOXJ4Ild9jy9G5tFbIaTJtD78Mr/rmztqQVaSx21TWHgri8r5JNNBsFwRLmg2czeZ9ZwiPiuZS0HG2ffk2dkYaccoRY7c1XIq7xOEpDfNPvhUs6bcujCsxh/m0iUZCFY7MOX6ZyM0DsNYQTrB1x+OiB6NfHocMRs5LCDw7n/aKV/FEYdyMafsjidtfRCNd+pWECi34bN8Rvu5SUeNk8GqM3BbN1fhYrsRGExlwlG2LhtDM/JWRMptOfLzhEEER0VwK9ub3Be/SsKCd0Kvfy/vHcSXuMjFhPhzaNAPX2m8ogwGhclsmrT9MUMQlLod6s22uG4UfL8du1C+cXPcub5XL9IKO+i9WHy3lzxDo16es6LD/BWW1T1CRMyIb5Z/mWI2zovIkS0z/1KyoOsIt83g2O42UHckke6SSPi4HlWbdFdQoOz4jY1UKyd8+Q2nwMqJdH8HWHY/oOK7GxRIfGYTP3vXM7t8YjeqpByNqdP6IlTuOExQeWVB/+1LX+FUMeY3uzNh8mPNhF4kOOcWuZcNxsBD9AIMgt/8Uzz1l8G26MJT/LBVyGo/bgrdPIJGXY4mPDCbg1CGWuPy7zroqr/yRO87iVEwcV+OL/KI2MsBCI6JQlf6ffULDi/Po3a4NTt1HsD7CIGfQ/7PRaB+uxsUQH3me0ztWMM6pEgIi/YNpY4Ys3sap8xHERoVy/sRuVg9rkN9e/9MRVDxfnEzS/mSS9iWTtCOF1KWZPNP4yK5ycBrJc3KKPx9NxPUS+chAwLrnIjy+6UbSjlm8282ZLgMn8fVv57ieXTR6+WHSsi3148P5U2VD61ZqIqOSis9cgyOn8aQtbBlTjfjzsWQUDQZMzbM4v24Sbh3b0Xn0FhJ7LmHhgDc1mFKT8+Ahls6d8zuqFdrSzSmTx4mFT7tR2PemBzd42MKNbpXLI2UKGo2ZxzvqmyQXyhj9+olDToNRcxn2ZBsbg9KK5H0uYctcsG/RgV4fbOB26/msnmif78xktXD/dg1DVfuZ3q873d2XEdl0LptntSO/rylGv+f4fNGeps2daN/3E/arBvDtvL6l65SWFKEiLnNXMkK9i4muHeg89gimI1ewakw9DWet5M6+7zlpN5NZLlYGLndi6r9+fcqt/InSpyyIsd8A9snUqKxAHqdAUAK5AkKeiHBBTc4HmTxTm2A51QqrRSao384io6/y5aXKwRmk91WhiFYgGNxpitAnL5ylLi1p0XUwn22/T+t5v7HxfTtx+SNY0qhtXZ4eWMRIty50Hb2ee52WsHRYrfyZNKESfeetoG/SZoZ3a0ebd74gyG4W341vKu7+BsK4Zm2qGXwQCOL8pxq1wfP1BUqu/T6Vvi59WOyfzZWfxtCzz2CW+Py7Dp8tr/xRxqyjb6sW2Du++LWk63xfEmPCic7SiCizxtZGydXwKJKUoM7JJCtXI/y/mlzClvWimUMLWnZ/n8WhNZm++hM6mBQE6/QPchwmruSrVn/x3aietOvSl/dnrmdvxENeebh/OgJGv1bCenhlrCdVxCxWRfaMbHJFT6iV9fr/DWTI6zJ0ihuJv8xl+bFYHmdkk5F4i6jwa6SqQdF8Bl6+S+lu/uoiecPJHAreyMAXvRW5LZ0nr2LPqSAuXY7ios8uvnKtKmqPmaLFVHZ4eeG9vC/VOn/B4eO7+bxtPYavP4zHJIc30CApubZ1HG5jlrA9Kun1NKvTidz1A7uDb5H8PJeMW2c5GwM1atoUjiurxYitgfgucsawi78CPLhEjG0XulSVYdKqK23uRnA5RzOOAofePZGd28iOuBb06Va55B1aPemX27mzYNBjftp1tci99egnFoUjw4bWIGDfaRK1tZKq56TcPMexkERq1KmJApDX68ewlvFsXbGXqMeppNwLZsv64yj6DqGTGYjTrwC1kuy/4/E6G4+8WnWsNY3Ro0+pqdCet7sksGvdIeKT1dTp7Urd50qa9+lFHc3Cn/snB488oLu7G7alFrkY9NT/QmjVR0T5K61+YvUpLaLsL4N9VXLIWJNKys/pZNdWkzMrmaRdyST/mEWuQkS4cR45rWRU2GWCPB2UHXNQ5kJep9yXKyjyI5ZYLTKjwlUB9WsJKyOi9AFQk5eZQOzx1Xy2MhL7iR9QaBeMNn3USQSsX8iqIxHcSc4i7aYvXhcyqNOgZoHvV1DBVMadqAgePVejTIkn/EoqxqYVXs+D0qKj/ZI3n8JOnyCCV/fByn46nhFRxERf5OinBW2Toh2z9p3ifGgEcYH/YcjbX7L71DmCg06xtJvpq2dos1+k/7TtPgeP4/6EXwjkxI+f0tW2SOHXev9/P0Kl1kxYsw+/kAtEXgjC78BKhtYr6Orqyx8ErDtNYePeU4SFXyQqzJeDq8fiZFmk9GjVT4VSqXz1ow7vve/Ixd1HuacCWfWBrPY8RYD/diY2tOCdtWHEREdxyXchzpqdTW33F1t+yoBg6cD7Szw4fT6Ui0Gn2bPM/eXKpLHbKs7+/A3rDvgSeup7Ppu+msO+gfhuGEwdOQiW7Vlw9By/DK+dr6dgScf5Rwn8cWgx/ldNbvp9wo76caOSHXUKLZ9o8w9yqtWsRnL4aQLupJGdmcT9K6GE33yDM+WGJEuGkb8RcgsVqtLsTCrr9f/FyASLFrSufxf/gLvFjmTz4g+w7353hrtYFzQOcuq7ulLtvCd+SWpAjt3IVawfZszxeUPo1LYTrhNWcjAmSdRJ93mXtzD63VFsjLrDzmn96Dfbk/sX1jC03wA++Dmu2DQZHGVe/nMEmdbGIh85Vo4jGd76Eb4BNwunTZ3BnehQQuKfYOgJFUG4RnB4Lbp2rELzru1JCAgn1UhzWtsBt55yAnyC8PW9Qiu3biVfFdCVfllNhnw5koytazmTIryukWj9tCNv4ExHqygCInQ4KZkJlRu5MbSrOZEhseQCJo2bYZcQR6zGSknO1ViuVWhMs9oFzZU+/V4iYFy5Ke+6NeVBcBj3NDNYlz5lQF6jHnbKv7jyQIlRo9F8Nfgpqyd+T3jNhhS0xwWoeBgSzIPmzgbdnqmv/hdGiz5iyl8p9ROvT+kQZX9Z7PvbGIvPK2E1yRLTewLGaytjPbIylaeYYZQnItxGiUopR/4UqPOcrJ4yzJaZYlRVieqF/S8SXjRNBkCUPoVQkxjgR0zFljjZaWSQNn2KIq9NCwczbl69nf88dRInf96D5ZglfNihIfbvfM60ZiGs+eMymgtTpUd3+6WM/ZFRLp3pssCf7D83MbCNE46t2jJgQ0HblBfO2uF96Np3BaEWfZnlnsHq4b1w7jaAZcEavkyX/fr8p7w+vTsm8/3IXrTvNpqfswawamFfbAr1BXXc/1+NjLcGzuDjKscZ37MDrTv0YNDnP+B/P7806s0f1KQ+uoz36o9w7dSWtm/PxKfaVBaNaVR4IlSkfqZtRzLc6hQ7/VJQA6rHnswe2Idu3cfyy/V0vGd2wLGVEy17LSNY80ba7i+2/JQWmS39l27m42q+zHm3C+1cJrLXdAIbZjuTv4tNhk0zAa8Jw1lzpxvj20Xz6cBFXGwxgO62MtTpF1g7fz9W05cxrqExlbvN5j+9rrL8q0Pcfc0hyKlg3YjeY/rR8G4kl16b7YLX/UMu0WfOIfSdybxBLamqsf3z34i6kpKcfjkoHytQFL9MqpOyXv/fjEKwrEQlIZXkVC1DC9UDju2NYJJ7f2p5beeeUJ/erpXxXRdEGoCsBj36OHB9x3vsjHqMCsi6HU1KkdvoRN4I+7p3uXxLjYVLQxTXz5FSXDkvbwRBS3tvTI+vT/Dd21ZYCI84vW4OP0Y/LxxFnULw5jkEF/6rYRByiPKPYmK/UbxTN42AeY+oNepVsMLBlV5GASyKeU7iA1+ufuZGD2tPDv5dIKLCic+PBPLJiyxWmGKRfuDl9YCO9Muo1u8LJsi2M8ErAVXXouEaaNVPP0Z29an56Do3i93ma0SHhb78uRDUeXc4sXwynx94iAoBU3MzZFkZZGpGf55FptIMC7OC1OjRD0xwWXmBqysBdS5Pw3/lC4/LFMphrfqUEVMzTJ9lkS2vx8gFI8nc+gGHb7Skl5EZZgpAYwVIefcGtwVX6r0lh2uvtRSlQm/9B/Tpo7f8Qen1K4E+pUGM/eVqnz5M1KhzQJApeTb+OcJhS0zu5ZFrpEad39a/orSVTwdi9CmKOiuNVKU5Fpozq6L0MaHR6AV8YH6YGV4JBZNdajLij7Ln6nrmLFnDWOsKxGycQ9hjw5R/g7RfL8nCf9tWIlJVwPOS+w9t/lOdiq/H71xKVQJ3OLrNm8m/9KCN6TFOvdiKJOb+/0rUpN+7R3odZ/p2CmC7/y1S7twuGkknytvBnLhd8J/kGI6evc6YZm8h59qrAbgY/QQb+oztQ/LBcZT4dRQx99dVfkqJrKoLw7oksGP4Ti4l55efY3+cYeqGPjgtDyIMyLsZS1x6Kg0epXE3MYKHWQqepJlTqaIAjyA79mfm/doWj1U/0KtidYIWjeLUU01/UNA+L1CTl53IrcgTLP78N64qi3dJhf2DmqSzi3g/3Z0pU1biPSOZczs2se738zwoo29/c6jJnZBK0njguQz5FWPMvzdBLtpFlfX6/w0U6swMMqhE5YoyeFKcOmqSffZy5tO5DG6yk01KV1zNzvDNhYJRv2CFjZWKxw+filpJKYRgiduS7czqWIXqtjJc9hxlVpWaVHrWAK8usfw0aR6HE0p813Igh5C1I3jvJ1Mq1XZi+KzNbLOczuif4nXOwhgMAbLCA4hfvJwhib/x/h0lo18GKmju5oJd9Sps8O2LCmMsKynI6W7NoUN/50fJi2XrxNkcepKvpaLtLPbOfHkDnQhVXJkztRK7px/gvhLKZ+JDwMTcHHlWJpnFDlJzCVvWhw8O2PDJnh9xVCWTrgZQk5WRicrMAo1dimBijrk8i1uZaqiKHv0g/52MznzslY1RxVp0mrCCNT/nMeH9LcQbZvpWO1kZZFWoRuOh8xgv2874/fdQWTtjmpdNVtFnK7PIyqmAmWlxTUDp0F//Qbc+ustfsdlZEkqiTynQb38526ePZwKCsQqlazbPBBMsfWRQUY1aKbxaUSlH9OvzOoKlNdaKVP4q0YxTBRoO+46fP8jjh0nrufBi9kFWi2Frt+J+YwED+oeSXrUzH69cx7YqMxmx/hIl7TO+Rlnar6IoH3LrXjm0CKoUnj59dV910lP+ljtgbSFAlgiNzfuw+vgiuhY477zbf/DRmB/5U1x26r9eX3iZUJPm9zUjs4czafIWTn5xjxO/bWDTwRhSRGWYQCXHYXwyaQBt65gjU6mRV6qFUXjJfai8wRDGtLzEjkW3yqfqaSs/+vTVES5UrYaNcSMm/u7HuILoCAoqyEKwLIivzsogUw0qlZLMjEzUWKJSa+6gyOX6/m0EjN9E/9srmRuSWsTvFbTPu15MMOjmdf+Qy+OwHSwJ2836Zn2Ztvhb/qj1JQOXBBa08/90BIx+rYjlyWLXRUVQ1uv/N1Co02K5fM+OLp3f4sfr94ovbM/C2eOZx8bB7fFN7oni9NdEvRj1qtNISZPhZFsFGQ+Lv14b6nROLx6En/NivN4L4r15MQzeuoHKK0ey6Wq5uINS8zz1CY9S4dHDu6zf04dzI7ti90s8199UMjNCOHo0AvXDM1xX2rz6u6I5bj3N8V4wmG9DnwMyarlvYqtbd6ocPkT+cCWXtKcJPC4Y+BklZ4vOJ6M2brjateNdr8t8qfF37+h32Dx0KBsMkk9qcrKyUZmZ8WIxpFhy4tm2/hyei6fT88wCfFLU5Fy/yp1qbXCoIhDzJN+zGTdxoNGzaxy4r4S6Bddq068QKnLT7nL+4FnujHKmhZVAvNYXaAyD8tF1bhrNYNGsONaP2MUNJZg2safug5uvL7MrLLAwzuJe8SO6UiGq/r+kGH1SdJe/sspXIn1KgV779dSvstqnl0Q5ckU2maMUmC6ogFwJajslygT5G5l506vPa8iw7eGCY2IEmwvto9SBYI7DuO/5YdRzfpz8Gbv/ejUEEaw60qfNHQ4uvsDfSuBxEJt/OMegJW9jv/kSkWUdsJak/RKK2QJbCBUqkSaXCFllbKsa8WJ0KlhXpYoyhaQMkYUvy59l7oNfviuhzsvM11Is+q7XF15mcngYuoMlobtZ7zCc/2z8kSXp7zDzZJEPsRSXPxU6M2f9BEy+n8Io71tkKmXUHvc7B+yLRtSHKR1HDcH67BJOaq6oGhQt5UefvjrC1YlP+Pt5JNsHTWRPMc7KGEAFL4RUFzf9IljS/pNZdLl2kNO2H7JgoB+fHH5QygGbLv+gJPnPY6z+rQeDPm1LXVkgMUWjSPzPIkN5nf3bgrGbuoov+ztSy7oyVWs3o1O7ehodRyV/HTrAva6T+NxVifexK68KquoBAX7XsR8zg8H21hjLjbCo1ggHO7GfPpRhU682KTdukSOvT6Mad/nLEL0QQ6GoS0fX1jSsboWZSQWs6nbhg8EtSb92hUI7EQRrun66mmVD6pfPRwHUqfiumsTMnRpL14CieW9cKvhx5OwDEhMTSUx8wuVj3txwcqNHFXE5AGhNf87p2bRycKCJff7P8WNPkmLX07fVIAMNVPLJuXuLx9UbUP/FF0SKRU1a4Ba2XO/GrI9aYgoob3pxMMaBifOG0tzGgoq1uzBtRn+U3gcJ0fxaixb9iiI3r0mnIW40fHqNq5p7brXoU2aeRXD8zBNyr4cQ+lSBZe2uTJ/ei4STZ7hVJKHyOg2pq7zNzYe6LCghour/K4rqI7r8lVa/EuhTKvTYX+726SNHgXGYDO4pMEpWo66WS/bwHGQhRsh19qwNhB59XiFgZFkTp4Fz2TCrMSEbfyeq0BY1LfoIVrSb9iM/j8xk8/SFeN6XYWZmhpmpCXIB1Fn3uZdWn64962EmA0zeovs77TG9c4OHhrBfZPuV83ciGTVb076WCSDDuIKxyPatAG32i0GoSM+xo2huKQOTWvQb+w6VQny5qPlKg677q5+RkpDA44Jfwt8ZJXvfR9/1+sLLhIy3WnSiqU0FZChJe3CTx5lyTIwLD0u05o+RFZXNM3h05ylZSjnmdV2Z8F7BlyQ10aUfIFR9mzF90jm0O4xSvUmi5/460aevjnDVEx8OhTVg3KwB2FsbATJMrOvT3qkOOpvalwhU6TmPb3r/xYr5S1k4/yBVZyxnbMOSfqpKi3+QVaVl9440fcsKU7kME5sWuL/Xhrybfxmmfv9TUKhRm2v8xIkvoYEMVDw+Np8PV1yi3sRNeJ3zx+fARma52hUqzKoEb/ZebohThjdehXoJSv7ymM0XJyowatMJLkaE4LPzG0Y5Woh05nLqNqjOvRsPUFdtQL20G9x8w3sV5Y6T+f2IJ4cXdMPCfjy/HvHkyHcDqS4DBDMavP05Pxzy4WJEGH7b5+B0YwPTvgso/JlJmTl2LTvQobFNyZ1RqTHCsXdPTIN8Cu2hVT3wx+d2K97uYSMyDyhT+nXqJxLljVBCM9rQtbWeb9moHnL4+93kDJ3NiPpyUN1nz9zZHDYayU+nznN+/0JaX1vJtLXhaI5VdFPwTkZcLDGB+1jsdI2VM38gWrOzVQZ9dJPB+dWzWHOvK5vOhhK0bz4O0Uv54o+iWw1k1HLuRI3LIej6BkHJEVP/telTgvJXav3E6lNadNn/JuzTh4DRDnPMEnLJ2JxCyrdZKK+ZYeGt8ZSGz0hfk0bq+FzU9Qv+/UkOKtGVXxe69ClA0Y6vfC5xyX8v3w2zJmDhOOZ45b//8RIt+gg2fZj2UWtsarmx9HAwURfD83+hPzGimgyehbF2xs+k9N/M2eAQLvh4MNn8KJ8tPMxjg3RmxLVfuRd+YamnEeN2BRARFsjJr7pjKYDczp2Nx85w/sQCOpk6MvPAOfyOrmFY7SLOT4v9IMJ/5obwh3dV5uz1IzxwD1MtjzJn+QkKTfDruL9u5DQe+wPHz57k6+6mNJ28Hd9TB1ncS+xkY3kjUNFxBN/tPcuFCxcI81pC04gVrD2d/4L7C7TlDxl+/LT5Lj03+xIR6sPeuU244BX6+vsgOvWT02jYKNrE7mH/X6X0OlruL7r8lBZVAke+nI5Hdn9WHgok8mIw53Z/w5hW1q+vQhWD/K0B/OcrJ4KWLOfkUxXP4rYy30PgoxVTaCn2Y2U6/YMxtXp+zPc7vQmJjCL8+Br6P9vNzKVFyve/HHXrLFI8Ukgu+KXM0HLuioRWhAaNRZ4+I1ThvY0H6OvnzuSDTyShJQyMnMZTdvNbs+28N8Or/LfX/Nswbs6sfeuoun4Q8/3+XWcgSEhISEhISEiUFjGDa0DAqsMkJjQJZOcpaaAiUR4oubb9Gw7VmMC0jv+UWb1/Cgrquc/C7eZa1vtLAxUJCQkJCQmJ/x30rqzI647mp18n46C8zsGlc1gbmKj7JUQJCQkJCQkJCQkJCQkDoHewIiEhISEhISEhISEh8f+ByG1gEhISEhISEhISEhISbxZpsCIhISEhISEhISEh8Y9EGqxISEhISEhISEhISPwjkQYrEhISEhISEhISEhL/SKTBioSEhMQbwMjWka6DR+M+fjzvjxtGm5qKEoX/dyNg4TiWdQf9iIiMIDrkKF921DwgVl/4fylGziw958lMh9ePKpT4ByDlj4TEG6FgsGJM7Z7TWbf3NOGRUUQHneHIlkm0MSscuTwRKr/HlqNzaa2Q02TaHn4ZXvXNnbUhq0hjt6msPRTE5X2TaKDN7xg3Y9r+SOL264hjYIzd1nAp7hKHpzTMP/lWsKTfujCuxBzm0yYaiVA4Muf4ZSI3D8BaQzjB1h3Xc8SJAAAgAElEQVSPix6M1jhO3sh5CYFn59O+pH0hbfaL1U8fFVrw2b4jfN2losbJ4NUYuS2aq/GxXImNJjLgKNsWDaGZ+SsjZTad+HjDIYIiorkU7M3vC96lYUE/Rq9+L+8fx5W4y8SE+XBo0wxcaxu9vH95I1Ruy6T1hwmKuMTlUG+2zXWj8OPl2I36hZPr3uWtcple0FH/xeqjpfwZAv36lBUd9r+gzPaZUbdtWyo99sXT4zf27DjCpUd54sIr1MCh91CGjv+IEePccelUH4uX5UCGWa1WOA9wZ+iHExgx1h1X5wZULG0dLBbt+gi27nhEx3E1Lpb4yCB89q5ndv/GaFRPcQhV6f/ZJzS8OI/e7drg1H0E6yOeiQ8vZ+T2n+K5pwy+TReG8p+lQk7jcVvw9gkk8nIs8ZHBBJw6xBKXf9dZV+WXPzJqjtlObHwcV1/8Ys6woG1JG08JCYmyIAMB656L8PimG0k7ZvFuN2e6DJzE17+d43p20ejlh0nLttSPD+dPlQ2tW6mJjEp6Q4ffyWk8aQtbxlQj/nwsGUWDX6Kg0Zh5vKO+SfKbSVgBanIePMTSuXN+R7VCW7o5ZfI4sfBpNwr73vTgBg9buNGtcnk0M9rsF6ufPuQ0GDWXYU+2sTEorUje5xK2zAX7Fh3o9cEGbreez+qJ9vmDD1kt3L9dw1DVfqb3605392VENp3L5lntyO9ritHvOT5ftKdpcyfa9/2E/aoBfDuvbyk7pSVEqIjL3JWMUO9iomsHOo89gunIFawaUy/fPgCU3Nn3PSftZjLLxcrAnQgx9V+/PuVW/kTpUxbE2G8A+2SmmJmpSXmYwDMVoMwlT7MIag03oXanXjRWx+G7y4MDx66hcOhBZ8cX5cAEqxqVyL7iz6nd2zl4NJyMWt3o0MxQnU0R+uSFs9SlJS26Duaz7fdpPe83Nr5vV7L8kVlja6PkangUSUpQ52SSlVuC8HLGuGZtqpXLRIEY/6lGXW5tjpJrv0+lr0sfFvtnc+WnMfTsM5glPv+uw2fLL38ErKta8eD3sbR0bIG9YwvsW73NiouaEw3lmT8SEhIAMuR1GTrFjcRf5rL8WCyPM7LJSLxFVPg1UtWgaD4DL9+ldDd/dZG84WQOBW9k4IveityWzpNXsedUEJcuR3HRZxdfuVYVtcdM0WIqO7y88F7el2qdv+Dw8d183rYew9cfxmOSQ8kavFKh5NrWcbiNWcL2qCStaZbbubNg0GN+2nW1+E6ArBYjtgbiu8gZw25OEODBJWJsu9ClqgyTVl1pczeCyzmacRQ49O6J7NxGdsS1oE+3ysWnURd60q/dfnH66UXhyLChNQjYd5pEbY5f9ZyUm+c4FpJIjTo1UQDyev0Y1jKerSv2EvU4lZR7wWxZfxxF3yF0MgNx+hWgVpL9dzxeZ+ORV6uOtaYxevQpNRXa83aXBHatO0R8spo6vV2p+1xJ8z69qKNZ+HP/5OCRB3R3d8O21CIXg576Xwit+ogof6XVT6w+pUWU/aW3T7BoTOeh7zN49ADsKxtj5/oBIyZMYMTILtSQ6Q9HUQO72plcC79C0jM1lvXqUTFPTZV6dbEUALJ5GO5P1LXHpD/LJSflNrcf5mBpZaDBiih9ANTkZSYQe3w1n62MxH7iBxTapaVFH1n1gaz2PEWA/3YmNrTgnbVhxERHccl3Ic5G+sMNgo72S958Cjt9gghe3Qcr++l4RkQRE32Ro58WtE2Kdszad4rzoRHEBf6HIW9/ye5T5wgOOsXSbqavnqHFfrH+07b7HDyO+xN+IZATP35KV9sihV/r/f/9CJVaM2HNPvxCLhB5IQi/AysZWi/ffr35g4B1pyls3HuKsPCLRIX5cnD1WJzyK88rtOonp4qNFU8ePCJHqURZ8Ct6MHap80ds+SkDgqUD7y/x4PT5UC4GnWbPMnccLPLtN3Zbxdmfv2HdAV9CT33PZ9NXc9g3EN8Ng6kjB8GyPQuOnuOX4bXz9RQs6Tj/KIE/DjWM/5WQEIlMsGhB6/p38Q+4i7JoKJAXf4B997sz3MW6oPGTU9/VlWrnPfFLUgNy7EauYv0wY47PG0Kntp1wnbCSgzFJr1Xo4si7vIXR745iY9Qddk7rR7/Znty/sIah/Qbwwc9xxabJ4Cjz8p8jyIpvLGQ1GfLlSDK2ruVMilB8HHUGd6JDCYl/gqEn/AThGsHhtejasQrNu7YnISCcVCMNZ6twwK2nnACfIHx9r9DKrVvJVwV0pV+f/fr0E4G8gTMdraIIiNCxnCczoXIjN4Z2NScyJJZcwKRxM+wS4ojVWCnJuRrLtQqNaVa7oLnSp99LBIwrN+Vdt6Y8CA7jnmbh06VPGZDXqIed8i+uPFBi1Gg0Xw1+yuqJ3xNesyEF7XEBKh6GBPOgubNBt2fqq/+F0aKPmPJXSv3E61M6RNlfBvvUGdcIOrCHQzuOEp/8nDtnPdj966/s3nWeRyr94YKFFZaqJJLT1cisHWnXJJMo7wskWFamYnGVTahIFRsjUpNSDTIzLkqfQqhJDPAjpmJLnOw0MkiLPqrHnswe2Idu3cfyy/V0vGd2wLGVEy17LSM4V3942dHdfiljf2SUS2e6LPAn+89NDGzjhGOrtgzYUNA25YWzdngfuvZdQahFX2a5Z7B6eC+cuw1gWbCGL9NiP6Dff8rr07tjMt+P7EX7bqP5OWsAqxb2xUazDOq6/78aGW8NnMHHVY4zvmcHWnfowaDPf8D/fn5p1Js/qEl9dBnv1R/h2qktbd+eiU+1qSwa06jwRKhW/UywtDDFcfpeQsNCCT65g5UftsNGM6PKkj9iy09pkdnSf+lmPq7my5x3u9DOZSJ7TSewYbYzFvkRsGkm4DVhOGvudGN8u2g+HbiIiy0G0N1Whjr9Amvn78dq+jLGNTSmcrfZ/KfXVZZ/dYi74hyChIRBUAiWlagkpJKcqmVooXrAsb0RTHLvTy2v7dwT6tPbtTK+64JIA5DVoEcfB67veI+dUY9RAVm3o0kpchudyBthX/cul2+psXBpiOL6OVIM0dKWFEEoZjZSRrV+XzBBtp0JXgmouhYNL0CdQvDmOQQX/bshEHKI8o9iYr9RvFM3jYB5j6g16lWwwsGVXkYBLIp5TuIDX65+5kYPa08O/l0gosKJz48E8smLLFaYYpF+4OX1gI70i7QftOgnDiO7+tR8dJ2bxW5DN6LDQl/+XAjqvDucWD6Zzw88RIWAqbkZsqwMMjWjP88iU2mGhVlBavToBya4rLzA1ZWAOpen4b/yhcdlnmtG0apPGTE1w/RZFtnyeoxcMJLMrR9w+EZLehmZYaYANFaAlHdvcFtwpd5bcrhmmJZCb/0H9Omjt/xB6fUrgT6lQYz95WqfPhRGyPPyyJNZ0djZnrxoL26k2FJTboRCBoVHEHKsmnemmfFVAv/KNMxgRYQ+RVFnpZGqNMdC88WV8tKnrBii/XpJFv7bthKRqgKel9x/aPOf6lR8PX7nUqoSuMPRbd5M/qUHbUyPcSrrRRwR9/9Xoib93j3S6zjTt1MA2/1vkXLndtFIOlHeDubE7YL/JMdw9Ox1xjR7CznXXlUfrfql4zXXjWAhjaRsI2zbjGTZmg2sejaMCbvv50/IGix/dJSfUiKr6sKwLgnsGL6TS8n56Tv2xxmmbuiD0/IgwoC8m7HEpafS4FEadxMjeJil4EmaOZUqCvAIsmN/Zt6vbfFY9QO9KlYnaNEoTj0V7w8kJAyBQp2ZQQaVqFxRBk+K6wCpSfbZy5lP5zK4yU42KV1xNTvDNxcKRv2CFTZWKh4/fCpqJaUQgiVuS7Yzq2MVqtvKcNlzlFlValLpWQO8usTy06R5HE4o8V0NilDFlTlTK7F7+gHuK8G4aIQ3gQBZ4QHEL17OkMTfeP+OktEvAxU0d3PBrnoVNvj2RYUxlpUU5HS35tChv/Oj5MWydeJsDj3J11LRdhZ7Z768gU7ejP0CJubmyLMyySy2h5VL2LI+fHDAhk/2/IijKpl0NYCarIxMVGYWaOxSBBNzzOVZ3MpUQ1X06Af572R05mOvbIwq1qLThBWs+TmPCe9vIV5za3J5kJVBVoVqNB46j/Gy7Yzffw+VtTOmedlkFX22MousnAqYmRbbpSkV+us/6NZHd/krNjtLQkn0KQX67S9n+/SRl0uewhyrpp2wF2LxuZKGukItFKoi77ygoFLTXvRsoSLmRDgJBppe16/P6wiW1lgrUvnr/2XGqYSUpf0qivIht+4ZSHhNVCk8ffrqvuqkp/wtd8DaQoAsERqb92H18UV0LXDeebf/4KMxP/KnuOzUf72+8DKhJs3va0ZmD2fS5C2c/OIeJ37bwKaDMaSIyjCBSo7D+GTSANrWMUemUiOvVAujcPE+VJ2dTH5LqiTh4u+sO/QeO3t2xGrPAZKg7PnzAm3lR5++OsKFqtWwMW7ExN/9GFcQHUFBBVkIlgXx1VkZZKpBpVKSmZGJGktUas0dFLlc37+NgPGb6H97JXNDiqza6ni+QcIlJACFOi2Wy/fs6NL5LX68fq94h/0snD2eeWwc3B7f5J4oTn9N1IsZTXUaKWkynGyrIONh8ddrQ53O6cWD8HNejNd7Qbw3L4bBWzdQeeVINl39Z5RUozZuuNq1412vy3yp8Xfv6HfYPHQoG95UOjNCOHo0AvXDM1xX2rz6u6I5bj3N8V4wmG9DnwMyarlvYqtbd6ocPlTgZHNJe5rA44KBn1Fytuh8ejP2q8nJykZlZsaLxZBiyYln2/pzeC6eTs8zC/BJUZNz/Sp3qrXBoYpAzJN8F2rcxIFGz65x4L4S6hZcq02/QqjITbvL+YNnuTPKmRZWAvFaX6AxDMpH17lpNINFs+JYP2IXN5Rg2sSeug9uvr7MrrDAwjiLe8WP6EqFqPr/kmL0SdFd/soqX4n0KQV67ddTv8pqnz7UGUmkydrRvv1Toj1jSVWBwtqGiukppL9MrBHWLXrTwyGP2BNnuJZkgFFcAXr1eQ0Ztj1ccEyMYHOhfZT/UErSfgnFbIEthApVeZgsq4xtVSNeLKMJ1lWpokwhKUNk4cvyZ5n74JfvSqjzMvm7JOnUd72+8DKTw8PQHSwJ3c16h+H8Z+OPLEl/h5kni3yIpbj8qdCZOesnYPL9FEZ53yJTKaP2uN85YF80oniUeUrUebmvVmXKmj8v0VJ+9OmrI1yd+IS/n0eyfdBE9hTjrIwBVPBCSHVx0y+CJe0/mUWXawc5bfshCwb68cnhB6/s1/F8g4RLSAAylNfZvy0Yu6mr+LK/I7WsK1O1djM6taun0XFU8tehA9zrOonPXZV4H7vyqqCqHhDgdx37MTMYbG+NsdwIi2qNcLAT+4KnDJt6tUm5cYsceX0a1bjLX4bohRiInNOzaeXgQBP7/J/jx54kxa6nb6tBhTvqgjVdP13NsiH1y+ejAOpUfFdNYuZOjaVrQNG8Ny4V/Dhy9gGJiYkkJj7h8jFvbji50aOKuBwAtKZftP1lJOfuLR5Xb0B9k6IhmqhJC9zCluvdmPVRS0wB5U0vDsY4MHHeUJrbWFCxdhemzeiP0vsgIS+W4EGrfkWRm9ek0xA3Gj69xlXNN4i16FNmnkVw/MwTcq+HEPpUgWXtrkyf3ouEk2e4VSSh8joNqau8zc2HuiwoIaLq/yuK6iO6/JVWvxLoUyr02F/u9ukj7zG3b2eiTH5AQpYMo4q1cWxrR9bNW6SpASpg2/YdejnkcPm0PzfTBRRGRigUcpH+Vw969HmFgJFlTZwGzmXDrMaEbPydKM1J4vLSp6yIbL9y/k4ko2Zr2tcyAWQYVzAumb5lsV+oSM+xo2huKQOTWvQb+w6VQny5qPlKg677q5+RkpDA44Jfwt8ZlGg4q+96feFlQsZbLTrR1KYCMpSkPbjJ40w5JsaFhyVa88fIisrmGTy685QspRzzuq5MeK/gS5KaaNNPbkfnvp1oXL0SphUqYddxHDOG2BB6OrRgdZ+y548+9OmrI1z1xIdDYQ0YN2sA9tZGgAwT6/q0d6qDzqb2JQJVes7jm95/sWL+UhbOP0jVGcsZ21Dj6xY6nm+QcAkJQAYqHh+bz4crLlFv4ia8zvnjc2Ajs1ztChVmVYI3ey83xCnDG69CvQQlf3nM5osTFRi16QQXI0Lw2fkNoxwtRDpzOXUbVOfejQeoqzagXtoNbpZxH3pJkTtO5vcjnhxe0A0L+/H8esSTI98NRONoEv3IzLFr2YEOjW1K7oxKjRGOvXtiGuSD5pEDqgf++Nxuxds9bETmAWVKvyH0U94IJTSjDV1b6/mWjeohh7/fTc7Q2YyoLwfVffbMnc1ho5H8dOo85/cvpPW1lUxbG47mWEU3Be9kxMUSE7iPxU7XWDnzB6I1O1tl0Ec3GZxfPYs197qy6WwoQfvm4xC9lC/+uFVkUCWjlnMnalwOQdc3CEqOmPqvTZ8SlL9S6ydWn9Kiy/43YZ8+cngYepbotNp0G/EBQwd1pkpCEMExKflzoGb1adGyOhUs69NxyDje//DD/N8H79C44Is/ZUOXPgUo2vGVzyUu+e/lu2HWBCwcxxyv/Pc/XlJu+pQVce1X7oVfWOppxLhdAUSEBXLyq+5YCiC3c2fjsTOcP7GATqaOzDxwDr+jaxhWu4jz02G/Xv+ZG8If3lWZs9eP8MA9TLU8ypzlJ9B8ZUrX/XUjp/HYHzh+9iRfdzel6eTt+J46yOJeYicbyxuBio4j+G7vWS5cuECY1xKaRqxg7emC8l+Atvwhw4+fNt+l52ZfIkJ92Du3CRe8Ql9/H0SrfjKqd/+UzQfOcCHcj/1LupP063TmeSa8Kt9lyB/R5ae0qBI48uV0PLL7s/JQIJEXgzm3+xvGtLJ+fRWqGORvDeA/XzkRtGQ5J5+qeBa3lfkeAh+tmEJLw3ysTEJCFEKDxk2KWfcrBqEK7208QF8/dyYffFLcYqGERBmQ03jKbn5rtp33ZniV+/aafx3GzZm1bx1V1w9ivt+/6wwECQkJCQkJCYnSImZwDQhYdZjEhCaB7DwlDVQkygMl17Z/w6EaE5jW8Z8yq/dPQUE991m43VzLen9poCIhISEhISHxv4PelRV53dH89OtkHJTXObh0DmsDE3W/hCghISEhISEhISEhIWEA9A5WJCQkJCQkJCQkJCQk/j8QuQ1MQkJCQkJCQkJCQkLizSINViQkJCQkJCQkJCQk/pFIgxUJCQkJCQkJCQkJiX8k0mBFQkJCQkJCQkJCQuIfiTRYkZCQkHgDGNk60nXwaNzHj+f9ccNoU1NRovD/bgQsHMey7qAfEZERRIcc5cuOmgfE6gv/L8XImaXnPJnpULKjHiXeEFL+SEi8EQoGK8bU7jmddXtPEx4ZRXTQGY5smUQbs8KRyxOh8ntsOTqX1go5Tabt4ZfhVd/cWRuyijR2m8raQ0Fc3jeJBoX8joyaY7YTGx/H1Re/mDMsaPtmOhLGbmu4FHeJw1Ma5p98K1jSb10YV2IO82kTjYQqHJlz/DKRmwdgrSGcYOuOx0UPRmscJ2/kvITAs/NpX1ITjJsxbX8kcfuLaKRTvxJQoQWf7TvC110qapwMXo2R26K5Gh/LldhoIgOOsm3REJqZvzJSZtOJjzccIigimkvB3vy+4F0aFvRj9Or38v5xXIm7TEyYD4c2zcC1ttHL+5c3QuW2TFp/mKCIS1wO9WbbXDcKP16O3ahfOLnuXd4ql+kFHfVfrD5ayp8h0K9PWdFh/wvKbJ8Zddu2pdJjXzw9fmPPjiNcepQnLrxCDRx6D2Xo+I8YMc4dl071sXhZDmSY1WqF8wB3hn44gRFj3XF1bkDF0tbBYtGuj2Drjkd0HFfjYomPDMJn73pm92+MRvUUh1CV/p99QsOL8+jdrg1O3UewPuKZ+PByRm7/KZ57yuDbdGEo/1kq5DQetwVvn0AiL8cSHxlMwKlDLHH5d511VX758//b/ktISOQjAwHrnovw+KYbSTtm8W43Z7oMnMTXv53jenbR6OWHScu21I8P50+VDa1bqYmMSnpDh9/JaTxpC1vGVCP+fCwZRYMRsK5qxYPfx9LSsQX2ji2wb/U2Ky5qdjTKEzU5Dx5i6dw5v6NaoS3dnDJ5nFj4tBuFfW96cIOHLdzoVrk8mhkFjcbM4x31TZILZYw+/cQip8GouQx7so2NQWlF8j6XsGUu2LfoQK8PNnC79XxWT7TPH3zIauH+7RqGqvYzvV93ursvI7LpXDbPakd+X1OMfs/x+aI9TZs70b7vJ+xXDeDbeX1L2SktIUJFXOauZIR6FxNdO9B57BFMR65g1Zh6+fYBoOTOvu85aTeTWS5WBu5EiKn/+vUpt/InSp+yIMZ+A9gnM8XMTE3KwwSeqQBlLnmaRVBruAm1O/WisToO310eHDh2DYVDDzo7vigHJljVqET2FX9O7d7OwaPhZNTqRodmhupsitAnL5ylLi1p0XUwn22/T+t5v7HxfbuS5Y/MGlsbJVfDo0hSgjonk6zcEoSXM8Y1a1OtXCYKxPhPNepyawyVXPt9Kn1d+rDYP5srP42hZ5/BLPH5dx0+W375I6b9L8/8kZCQAJAhr8vQKW4k/jKX5cdieZyRTUbiLaLCr5GqBkXzGXj5LqW7+auL5A0ncyh4IwNf9FbktnSevIo9p4K4dDmKiz67+Mq1qqg9ZooWU9nh5YX38r5U6/wFh4/v5vO29Ri+/jAekxxK1uCVCiXXto7DbcwStkclFZNmOVVsrHjy4BE5SiXKgt9rB2PKajFiayC+i5wx7OYEAR5cIsa2C12qyjBp1ZU2dyO4nKMZR4FD757Izm1kR1wL+nSrXPKOip70y+3cWTDoMT/tulrk3vr0E4nCkWFDaxCw7zSJ2hy/6jkpN89xLCSRGnVqogDk9foxrGU8W1fsJepxKin3gtmy/jiKvkPoZAbi9CtArST773i8zsYjr1Yda01j9OhTaiq05+0uCexad4j4ZDV1ertS97mS5n16UUez8Of+ycEjD+ju7oZtqUUuBj31vxBa9RFR/kqrn1h9Soso+0tvn2DRmM5D32fw6AHYVzbGzvUDRkyYwIiRXagh0x+OogZ2tTO5Fn6FpGdqLOvVo2Kemir16mIpAGTzMNyfqGuPSX+WS07KbW4/zMHSykCDFVH6AKjJy0wg9vhqPlsZif3EDyi0S0uLPrLqA1nteYoA/+1MbGjBO2vDiImO4pLvQpyN9IcbBB3tl7z5FHb6BBG8ug9W9tPxjIgiJvoiRz8taJsU7Zi17xTnQyOIC/wPQ97+kt2nzhEcdIql3UxfPUOL/WL9p233OXgc9yf8QiAnfvyUrrZFCr/W+//7ESq1ZsKaffiFXCDyQhB+B1YytF6+/XrzBwHrTlPYuPcUYeEXiQrz5eDqsTjlV55XaNVPXPtf6vwRW37KgGDpwPtLPDh9PpSLQafZs8wdB4t8+43dVnH2529Yd8CX0FPf89n01Rz2DcR3w2DqyEGwbM+Co+f4ZXjtfD0FSzrOP0rgj0MN438lJEQiEyxa0Lr+XfwD7qIsGgrkxR9g3/3uDHexLmj85NR3daXaeU/8ktSAHLuRq1g/zJjj84bQqW0nXCes5GBM0msVujjyLm9h9Luj2Bh1h53T+tFvtif3L6xhaL8BfPBzXLFpMjjKvPznCLJiGgsTLC1McZy+l9CwUIJP7mDlh+2wKRpRncGd6FBC4p9g6Ak/QbhGcHgtunasQvOu7UkICCfVSMPZKhxw6yknwCcIX98rtHLrVvJVAV3pl9VkyJcjydi6ljMpwusa6dRPHPIGznS0iiIgQsdynsyEyo3cGNrVnMiQWHIBk8bNsEuII1ZjpSTnaizXKjSmWe2C5kqffi8RMK7clHfdmvIgOIx7moVPlz5lQF6jHnbKv7jyQIlRo9F8Nfgpqyd+T3jNhhS0xwWoeBgSzIPmzgbdnqmv/hdGiz5iyl8p9ROvT+kQZX8Z7FNnXCPowB4O7ThKfPJz7pz1YPevv7J713keqfSHCxZWWKqSSE5XI7N2pF2TTKK8L5BgWZmKxVU2oSJVbIxITUo1yMy4KH0KoSYxwI+Yii1xstPIIC36qB57MntgH7p1H8sv19PxntkBx1ZOtOy1jOBc/eFlR3f7pYz9kVEunemywJ/sPzcxsI0Tjq3aMmBDQduUF87a4X3o2ncFoRZ9meWewerhvXDuNoBlwRq+TIv9gH7/Ka9P747JfD+yF+27jebnrAGsWtgXG80yqOv+/2pkvDVwBh9XOc74nh1o3aEHgz7/Af/7+aVRb/6gJvXRZbxXf4Rrp7a0fXsmPtWmsmhMo8IToVr1E9H+lyV/xJaf0iKzpf/SzXxczZc573ahnctE9ppOYMNsZyzyI2DTTMBrwnDW3OnG+HbRfDpwERdbDKC7rQx1+gXWzt+P1fRljGtoTOVus/lPr6ss/+oQd8U5BAkJg6AQLCtRSUglOVXL0EL1gGN7I5jk3p9aXtu5J9Snt2tlfNcFkQYgq0GPPg5c3/EeO6MeowKybkeTUuQ2OpE3wr7uXS7fUmPh0hDF9XOkGKKlLSmCUMxsZDpec90IFtJIyjbCts1Ilq3ZwKpnw5iw+/6rAZk6heDNcwjWvNRQCDlE+Ucxsd8o3qmbRsC8R9Qa9SpY4eBKL6MAFsU8J/GBL1c/c6OHtScH/y4QUeHE50cC+eRFYhWmWKQfeHk9oCP9Mqr1+4IJsu1M8EpA1bVouAbF6icOI7v61Hx0nZvFbkM3osNCX/5cCOq8O5xYPpnPDzxEhYCpuRmyrAwyNaM/zyJTaYaFWUFq9OgHJrisvMDVlYA6l6fhv/KFx2Wea0bRqk8ZMTXD9FkW2fJ6jFwwksytH3D4Rkt6GZlhpgA0VoCUd29wW3Cl3ltyuGaYlkJv/Qf06aO3/EHp9SuBPqVBjP3lap8+FEbI8/LIk1nR2NmevGgvbqTYUlNuhLAGEHYAACAASURBVEIGhUcQcqyad6aZ8VUC/8o0zGBFhD5FUWelkao0x0LzxZXy0qesGKL9ekkW/tu2EpGqAp6X3H9o85/qVHw9fudSqhK4w9Ft3kz+pQdtTI9xKutFHBH3/1eiJv3ePdLrONO3UwDb/W+Rcud20Ug6Ud4O5sTtgv8kx3D07HXGNHsLOddeVR+t+olo/w2WPzrKTymRVXVhWJcEdgzfyaXk/PQd++MMUzf0wWl5EGFA3s1Y4tJTafAojbuJETzMUvAkzZxKFQV4BNmxPzPv17Z4rPqBXhWrE7RoFKeeivcHEhKGQKbOzCCDSlQudpoOQE2yz17OVBvE4CZy5A1ccTU7g+eFglG/YIWNlYrHD5+KWkkphGCJ29eHOXl8LcNqtmHmnqMcmdeFt/qtwMtzJYPKZxNqiVFnJ/N3lhK1+hkJF39n3aGnOPXsiFWxLUs5IEBWeADxbccwhCDO3dHsoSho7uaCXfVBbPANIPDADFpXak+f7i9WwoC8WLZOHMrAQYMZOGgwQ74+I3owKFRxZc7USuz+9gAFk1nlgICJuTnyrEwyi01XLmHLetGs1XC2XLfEUpVMuhpATVZGJiozCzR2KYKJOebyLNJf3EynfvDinYwm9o407zSA+Zc6subnydi/iXcoszLIqlCRxkPnMV62nW/230Nlao5pXjZZRV+LUmaRlVMBM1PDFTz99R906yOi/JWFkuhTCvTbX8726SMvlzyFMVZNO2EvxHLxShpqhTEKVZF3XlBQqakLPVuoiDkbToKBptf16/M6gqU11opUksU6mf9PytJ+FUX5kFv3DCS8JqoUnj59dV910lP+llthXbCVRy/mfVh9Loiw4Pxf0K4pNCvJqqS+6/WFlwk1aX5fM3J+IFXHbuHk8a0sHObI/7V373E5n/8Dx1/3oRTl0Mkx5RQrIedyjOQwc5qxMWzzddhm+9IYYxsbY3Oa42yzzWFsTkUkh04qneVQ+A4ltFBCkpDu+/79UajUfX/uuzJ+u56PR3/wOdyf631dn/f1uT7HmpKbo4waziP4fPUW9vjuZu/uXfw0rjlGMomxQ0L/X976eays9qMrvlqmy6xrY2XcjAmbQogIDyMiPIzQNUOxVFbD3LhgHk1uDvc0oFaruJdzDw1q1Jqid1A8ImnnBsIsOtLq7238ElXiqq2W36+Q6YIAKDXZp0lItaNrl3r8mJRaesJ+EMc233xWD+tI8G13lIe/4sTjM5qabLKy5bjYWCLnaunLl0Vzl8NzhxLiNhe/IREMmZXIsPWrqLV4FGvOlTygfHGo8lVo8h9JvC2iguREsXdvPJqrASSprJ7+v7Ilnu7V8J8zjG+jHwJyGoxcw3rPHlju9uEmAI/IvpHO9fSC2jG6fV9yPRm188TDrgOv+SXwWZH/9z/Zn7XDh7OqQupJQ17ufdRVq/L4Ykip8s6yYeURfOdOwT1gDkFZGvKSznG5djucLGUkZhSkUOPmTjR7cJ5df6vAvnDZsuJXjJpH2Vc46h3I5dFutKop42yZD9BUDNW1JC4aTeVLrzOsfOsPklVg2twR+7SLz15mV5phZpxLaukjOoNI2v+fKCU+WdrbX3nDp1d8DKCz/Dr2r/KWTxdNzi2y5R3o2PEGJ31Pc0cNSgsrqt/N4u6TjTXColUfejrlc/pAAOdvVcAorpDO+DxDjk3P3jhnxrO22H2ULyh9+i9ZKbfAFqNGXRlFltfCxtqIx5fRZBbWWKqyuJUjsfHlhrJg5LAnz0po8u9xU5/t1LW8runllsfV6C3Mi/6TlU4j+Hr1j8y7259pB0u8iKW0+jHpwoyV46ny/WRG+6dwTyXHdtwmdjmWnFG6Z/r/8tbPE2W0H13x1TJdk5nBzYfH2Tx0AttKSVbGAGp4HEhNaddjZeZ0/MiLrue9OWzzLnMGh/DR7rSn5dfy+xUyXRAAOaokdm6IxO79JXw20JkGFrWwtn0F1w6Nihw4qrjgs4vUbhP5xEOF/76/njZUdRphIUk4jpnKMEcLjBVGmNVuhpOd1Ac85Vg1siUrOYU8RWOa1b3ChYo4CqkoCju6DHDFoU4NTE1qYNd5HFNftyL6cHTh2f1CMgu6fbyUBa83rpyXAmjuELxkItO2Frl0DShb9qG3SQh7AtPIzMwkMzODhH3+JLt40tNSWg0AZW5/3uHptHFyorljwZ/zB77cOr2SAW2GVtBApUDelRSu12lC4yolpxSlITt8HeuSuuP1n9aYAqqLfngnOjFh1nBaWplR3bYrH04diMrfm6jHl+ChzPiVpKhWH9fXPWl64zznij5BXEZ8yu1BPPsDMniUFEX0DSXmtt2YMqUX6QcDSCmxoYqGTbFXXeLiVW0l0JOk/f+pkvGR3P4MjZ8e8TGIjvJXevl0yb/OpUv3UN1OIz1XjlF1W5zb25F7MYVsDYAJNu3708spj4TDoVy8K0NpZIRSqZCYf3XQEZ+nZBiZ18dl8ExWeTkQtXoTJ4qeJK6s+JSXxP4r72YmOfXb0rFBFUCOsYmxfvEtT/ll1XEfO5qW5nKo0oBXx/anRlQwx4o+0qBt/ZoHZKWnc73wL/1mDnoNZ3Utr2t6ucip18qVFlYmyFGRnXaR6/cUVDEuPiwps36MalKrWg7XLt8gV6Wgmr0H44cUvkmyqLLiJ6X/L2/96KIrvlqmqzOC8IlpwjivQThaGAFyqlg0pqNLQ7R2tU/IsHSfxcI+F1g0ez6fz/bGeuo3jG1a5O0WWn6/QqYLAiAHNdf3zebdRadoNGENfkdCCdq1Gi8Pu2KNWZ3uz/aEprjk+ONX7ChBxYWN0/n0gAmj1xzgWHwUQVsXMtrZTGIyV2DfpA6pyWlorJvQKDuZi+W8D11fCudJbNrjy+453TFzfI9f9/iy57vBFHyaRE6dHh+zdlcAsXEh7JzXg1u/TmGWb3rxs3Dyati17kQnByv9k5HBjHDu445pRBBFPzmgTgsl6FIb+vW0klgHlGv7tcdPGlVyNNE57ejWVse7bNRX2f39n+QNn85bjRWg/pttM6ez22gUPx06ytGdn9P2/GI+XB5H0bGKdoXPZJw5TWL4Dua6nGfxtB84WfRgqxzx0S6Ho0u9WJbajTWB0UTsmI3Tyfl8+ntKiUGVnAZurtRNiELbOwj0J2X/Lys+erQ/g+MnNT6G0lb+51E+XfK4Gh3IyWxbur/1DsOHdsEyPYLIxKyCc6BVG9OqdR1MzBvT+fVxvPnuuwV/7/THQd/bUEqlLT6FlB34IugUp0K3890bFoR9Po4ZfgXPfzxRafEpL2n916PYX5jva8S4P8KIjwnn4Bc9MJeBwm4kq/cFcPTAHFxNnZm26wghe5fxhm2J5Kel/Drz56Mofve3Zsb2EOLCt/G++V5mfHOAoo9MaVu/dgocxv7A/sCDfNXDlBaTNhN8yJu5vaSebKxsMqo7v8V32wOJjY0lxm8eLeIXsfxwYfsvVFb9kBPCT2uv4L42mPjoILbPbE6sX/Szz4OUGT8J/X856kdy+zGUOp09n01h4/2BLPYJ5/ixSI78uZAxbSyevQpVCkW9QXz9hQsR877h4A01D86sZ/ZGGf9ZNJnWFfOyMkGQRNbEoXkp1/1KIbNkyOpdDAgZySTvjNIuFgpCOShwmPwnv72ymSFT/Sr99pqXjnFLvHaswHrlUGaHvFzfQBAEQRAEQTCUlME1IKNmp4mMbx7O1kNioCJUBhXnNy/Ep+54Puz8opzVe1EoaTTSC8+Ly1kZKgYqgiAIgiD8e+i8sqKwf5uffp2EkyoJ7/kzWB6eqf0hREEQBEEQBEEQhAqgc7AiCIIgCIIgCILwT5B4G5ggCIIgCIIgCMLzJQYrgiAIgiAIgiC8kMRgRRAEQRAEQRCEF5IYrAiCIAiCIAiC8EISgxXhxaZwYMLGAMJCgjkafZzTW8ZRUd/LEoSXnpEb84/4Ms1Jv08BCi8JUb8vCRlmzmNZ4R1C/PF4Tkbt5bPOOj5wLAiCZIWHfcbYuk9hxfbDxB0/wcmIAPasm0i7qsVnrkyyWkNYt3cmbZUKmn+4jV9GWD+/b23Iq+Pg+T7LfSJI2DGRJs/0C8bU7zGZZVsPEB1/gsT4g8zuoCw5U6Uw9lzGqTOn2D25acGXb2XmvLoihr8Sd/Nx8yIbqnRmxv4Ejq8dhEWRwMlsRrLx2EbeLvI5eSO3eYQHzqZjBRVBVqs9E1fuJiL+FAnR/myY6YmtUcm5JDBpxX937OGrrtWf1r3qPOvf6UN3994MWhJH0Y/K/3+hO34K7Eb/wsEVr1GvUgZqWvZ/eW1GbTjJubNn+OtMAokxQfismYpHyQouo/1VBN3xKS8t5X+sEsunO//808qOj8xmJBtPnuHcmdOcPR5B0PaVTB/oQDWpMZKZ88rg6azdEUDciZOcitjPhs/6YVesfv+5/PuYwvFjfLdVUt38o/WvwGHcOvyDwjmecJqzxyMJO+TDvN4v17euKq9+5NQfs5nTZ89w7vFfYgBz2pdofzJrBv73I5oem0WfDu1w6fEWK+MfFJ/nX6jc+UEQCslBhoX7l2xc2J1bW7x4rbsbXQdP5KvfjpB0v+TsladK6/Y0PhvH/9RWtG2j4fiJW8/p43cKHCauY92Y2pw9epqckpORUcv9SzbNbc+VDVMZ6NYO5/YDWXw8v+SMlURDXtpVzN26FByomrSnu8s9rmcW/9qN0rEPPUnmaitPutd6jplAVp3eMxfzluYPJnh0osvYPZiOWsSSMY0KBleSKWgyeiZvZGxgdUT2c6r7F4Ck+Km4vON7DtpNw6t3zQo+iJCy/z8k6NOOtGjpQscBH7FTPYhvZw0odtBeae1PUnzKQ0r5K7F8OvOPFBo0lbbDSIhPfhzze7emVbdh/Hfz37Sd9Rur37STXD+m1XI5umIinp070OXtdWS6z+PzQY9PVv3T+beAcX1balfKiQIp9V+Z9avi/Kb3GdC7L3ND7/PXT2Nw7zuMeUEv18dnK69+ZFhY1yRt01haO7fC0bkVjm36sehYifYnt8DGSsW5uBPcUoEm7x65/x/PrBminPlBEADkKOwZPtmTzF9m8s2+01zPuU9OZgon4s5zRwPKllPxC55Pj2pPF1I0nYRP5GoGPz5aUdjQZdISth2K4FTCCY4F/cEXHtaS7jFTtnqfLX5++H8zgNpdPmX3/j/5pH0jRqzczcaJTs+hQas4v34cnmPmsfnErWe3WWHPG5O7kPDddFYFniPzoRo0+eSrSswnb8Bb68MJ/tKNir34K4O0UyTadKWrtZwqbbrR7ko8CXlF51Hi1Mcd+ZHVbDnTir7da+l/QGvo9pt0pF/XdP5Y4cPZ2xoa9vHA/qGKln170VCfylM688bwuoTtOEymnr2ksk53Plq5iyORUcSF7WPD7EE0qwpQncFro1k/rGQ8FDhP8+XA9NZIPj9raHx0kRq/R//De08aPUZ6YvNMIy0HHft/MRoV92+exS/wLIradbB4sh0S2p+h8ZMaH0NJKn8llk9X/gFk5k68OW8jh49GcyziMNsWjMTJrPgW2PSYwcb9ocTFhnPgx4/pZlMRwUFifAA05N9L5/T+pfx38XEcJ7xDsbtgyoqP5i7H//iBPyNTuP3wETkpgQQmQt36VgWxkJp/y0NL/6VoOZmtQRFELu1LTccp+MafIPHkMfZ+XNg3KTvgteMQR6PjORP+Na/3+4w/Dx0hMuIQ87ubPv2Nssovof5BQv2Wuf6Xn6xGW8Yv20FIVCzHYyMI2bWY4Y0Kyq+zfpBh4TqZ1dsPERN3jBMxwXgvHYuLeYk9uMz4KbC0qklG2jXyVCpUhX+PTxXK6wxmqe8hwkI3M6GpGf2Xx5B48gSngj/HrejVwbLWL7X9lIO2/GHsuYTAnxeyYlcw0Ye+579TlrI7OJzgVcNoqACZeUfm7D3CLyNsC+IpM6fz7L2E/zhcz/yrIz8Igg5ymVkr2ja+QmjYFUrL//lnd7Hj7x6M6G1R2EEraOzhQe2jvoTc0gAK7EYtYeUbxuyf9Tqu7V3xGL8Y78Rbkr50n5+wjrdfG83qE5fZ+uGrvDrdl79jlzH81UG88/OZUrepwqnyC35HJn+ms5DVaEcn+yRSLT7gl90HCQnyZ8eyibhalZhTk8Plk9FEnc2o8FuVZLLzRMY1oFtnS1p260h6WBx3jIqe1nbC011BWFAEwcF/0cazu/63qhi4/Yq6jbBTXeCvNBVGzd7mi2E3WDrhe+LqN6WwP5FE0cSNzjVPEBav5+U8hQPvrViEe9pyRvRwpfPAWYTaebHu065Ul93jUkom9ewbIJfXpd+MpXw7uiVGmGJnb82V5MvS25eB8dFFevzUXI2KJK2lW4Xenqlr/y9OhnGtFrzm2YK0yBhSHy8gpf0ZGD/p8TGMpPJXYvkArfkHuQ0D56/lg9rBzHitKx16T2C76XhWTXfD7PE8isb06Xyb70f1omP3t/k5dxBLPh+AVcltNICk+BSjITMshMTqrXGxK1JBkuKjoKbzKEa0vUZw2EVU6JF/Daa9/1Kd/pHRvbvQdU4o9/+3hsHtXHBu055Bqwr7pvw4lo/oS7cBi4g2G4DXyByWjuiFW/dBLIgsksu0lV9b/YO0+tW2/peanHqDp/KB5X7ec+9E2049GfrJD4T+XdAaddYPGu5cS8B/6X/wcG1P+37TCKr9Pl+OaVb8RGiZ8auCuZkpzlO2Ex0TTeTBLSx+twOPm5/6ui/TB/ele4+x/JJ0F/9pnXBu40LrXguILLqistYvtf0YSmf+kGP1igy/8SNYdrk773U4yceDv+RYq0H0sJGjuRvL8tk7qTllAeOaGlOr+3S+7nWOb77w4Yq0hFBCGflBEHSQy8xrUEN2h9t3yhhaqNPYtz2e1sMH0kBOQeL0qEXw3giyAeR16dnXiaQtS9h64jq5eQ/IunSSs+l6tGRFMxztr/BXigazZk1RJp0nq+RZ3edBJnvmjKncpg42VZxxtY3h61H9ce/3Dqsy+7FswVCKPAYCmiwi185gzq4kiZ26HmR5nAg9QdOeo+nvmk1Y2DWK9mpKJw96GYURmPiQzNBgzrX2pGexe3Rc+GRPODGREcRERnB0RSn33Ru6/aZVMX2Qy31FI0bNGcW99d+yO/ku942qUlXyZQswsmtM/WtJXNTzNl9F0z68an+M39ZFkvEIVNln2PKDH+q+g+lsouZy8hWs7WypatWV4f3a0+VNTxyr1KdRg1tcTMmRfquDofHRRY/4qa4kc0lmS6N6FZfkde7/AFSh9+JYzp09TeLRbXxg5svCjQk8LJyqs/2B4fHTIz6GkFL+Si1fUaXlH+vevNE1nS1LtnLqdj6aB5fZ93sAql59cXl85lZzh+CNmzh1R4XmwWX2bvAnq1NP2lXAiVkp8SlJk5vNHVU1zIremK41Psb0/CqImJhYIn4dRvb62fx4sqB1Sc6/hqqI/uuJXEI3rCf+jhpUD3lY9E4hreUvVEr9A9LqV8r6X0oa7qamcrehGwNc7TGXPSLr8iVu6DEiU12K5EBcKnfzQXU7kb2BSdRpWK/EYKWs+N3Fb6YnvXv1pFPnngz9PJha76xiycgGpQ8sy1Lm+ovS0n4MJCV/5F88zZm7d7h2LZsrx+K5mptJRnY1alQvaI33T//MrF/VvLfkB1Z/2Y6IuQs4dEN6Piip1PwgCDooNfdyyKEGtarLIaO03UjD7aDtBHw8k2HNt7JG5YFH1QAWxhaO+mU1saqp5vrVG5KupBQjM8dz3ma8OltSx0ZO72178bKsT40HTfDrepqfJs5id7rea61gMngYxYY1QVy+D5BB5Ja9XNnpSmtjb67reXBtEBnkxoVxdu43vJ75G29eVvH2k4lKWnr2xq6OJauCB6DGGPMaSvJ6WODjc7NglvzTrJ8wHZ+Mglgq23uxfdqTFZRPbg65JrVxGD6L9+SbeW9nKmoLN0zz75MrOdnKqFKtGorce9yTPHooIK9Zixp308kochJKnXGNdKNXsDSHnEuXuFXPnhadHbCP/R2fxh64NTuDfe2/ibxcWnt/zvSJnyqX3DwTqppWXJLXvf9DwTMrXfjA7z5G1RvgOn4Ry37OZ/yb6zibr7396Vmdz9InPgbQXf5KLp8OMuvaWBk3Y8KmEMY9+U8lJvIozI2BPECdxY0iR2+aWze4qXDCwkwGueXbQt3xeZbM3AIL5R0uSD7jlEfU8rcY8pMpNWxdGOG1lg3mU3j7p7OoKzv/lqf/Kkl1lZRUPY6ipSpv/Vbry9L9X9LNuOCf+Zd+5z9jfuR/0qpT9/K6ppeLhuyQrxh1fwQTJ63j4KepHPhtFWu8E8mSVGEyaji/wUcTB9G+YTXkag2KGg0wipOeQzX3b1PQk6pIP7aJFT5D2OremZrbdnFLQvglK6v96Iqvluk68wegyc3hngbUahX3cu6hwRy1RlZkMPaIpJ0bCHtvDQMvLWZm1J3ieU/L75fmmfyg5/LCv5NSk32ahFQ7unapx49JqaUn7AdxbPPNZ/WwjgTfdkd5+CtOPH5mQpNNVrYcFxtL5FwtffmyaO5yeO5QQtzm4jckgiGzEhm2fhW1Fo9izbkXo6Wq06+QRkdsaskht6B0MiMjlGoV+RWZqHTJiWLv3ng0VwNIUlk9/X9lSzzdq+E/ZxjfRj8E5DQYuYb1nj2w3O1TmGQfkX0jneuFAz+j2/f1qyctVNeSuGg0lS+9zrDyrT9IVoFpc0fs0y7qcZlYQ17ufdRVq1JVeh8CgDrzBreqO1G7mozHN9HLa9ej9qNbZN7VoLqcTKpVRzxdW/C/iPmEZw1lSr9WGN9JIeXu86zA0ukVP6UZZsa5pOo7otNC0v7/hJpH2Vc46h3I5dFutKop42yW9van7/NHJekVHwPoLL+O/au85dNFk5nBzYfH2Tx0AttK+zEjQF4LG2sjKDxnK7OwxlKVxa2cUubXk874PEOOTc/eOGfGs/bJfYK6PbyTwbU7cO3qFVZu68uRUd2w++UsyZWdf/Xpv2RFD+BKo0YtvcjSlbd+c0NZMHLYk2clNPn3uKnPdupaXtf0csvjavQW5kX/yUqnEXy9+kfm3e3PtIMlXsRSWv2YdGHGyvFU+X4yo/1TuKeSYztuE7scS84onSpfhSb/kZYrJIYqo/3oiq+W6bryhzGAGh4HUlPa6ReZOR0/8qLreW8O27zLnMEhfLQ77Wn5tfz+s0rJD3otL/xbyVElsXNDJHbvL+Gzgc40sKiFte0ruHZoVOTAUcUFn12kdpvIJx4q/Pf99bShqtMIC0nCccxUhjlaYKwwwqx2M5zspL76UI5VI1uyklPIUzSmWd0rXKiIo5AKoskKZ0+4Le98OpxXqitRmDWm//jB2ESFPB2wAcgs6PbxUha83rhyXgqguUPwkolM23q+WJJUtuxDb5MQ9gSmkZmZSWZmBgn7/El28aSnpbQaAAzf/gfx7A/I4FFSFNE3lJjbdmPKlF6kHwwgRY9qzLuSwvU6TWhcpeQU7VSXDrPvQlvGf9CNOsYgN3fk7fcHYhy8n5gHoMm+xKWHjrg6phEbf5szsQk07N4Fq9Rk9LqwYmh8dNEjfoqGTbFXXeLiVX02XAdJ+/9Timr1cX3dk6Y3znPujkZ6+zM0fnrExyA6yl/p5dNBnRGET0wTxnkNwtHCCJBTxaIxHV0a8mRXkVXHfexoWprLoUoDXh3bnxpRwRyrgFvedcXnKRlG5vVxGTyTVV4ORK3exImiJ4nLio/Sns4ebWlapyZVq5hQ074r7wxrzd3zf3FdpUf+NZTE/ivvZiY59dvSsUEVQI6xibHE/q1QWeWXQkr9alu/5gFZ6elcL/xLv5mDXhcldS2va3q5yKnXypUWVibIUZGddpHr9xRUMS4+LCmzfoxqUqtaDtcu3yBXpaCavQfjhzg+G6Oy4qewo8sAVxzq1MDUpAZ2nccx9XUrog9Ho9e5rrLWL4Wu+GqZLil/aCXD0n0WC/tcYNHs+Xw+2xvrqd8wtmmRtwdo+f2ntOQHScsL/3ZyUHN932zeXXSKRhPW4HcklKBdq/HysCvWmNXp/mxPaIpLjj9+xY4SVFzYOJ1PD5gwes0BjsVHEbR1IaOdzSQmcwX2TeqQmpyGxroJjbKTuVgRnZAeFM6T2LTHl91zumPm+B6/7vFlz3eDC+6J1tzi0PypbHo4jHUBMcQHrecdY2+mLThU/BKwvBp2rTvRycFK/2RkMCOc+7hjGhFE0Ve6q9NCCbrUhn49rSTWAeXY/hyOLvViWWo31gRGE7FjNk4n5/Pp7yl6nXlSJUcTndOObm1LvCJE2ZoPf/cjJPQoQV+6YdpmGnuPBhO4ezY9qwKqFDZ/MpOA2h/ye2AksYe+xzPjBz78NpRsDaC6TNLfDWisjic2Q82DU3EkNWiM8nLKs2+70sbg+OgiNX5yGri5UjchCn3fQaCdlP2/8JmVM6dJDN/BXJfzLJ72Aycf6dH+DI6f1PgYSlv5n0f5dOQfdTp7PpvCxvsDWewTzvFjkRz5cyFj2lg8PYv8KIrf/a2ZsT2EuPBtvG++lxnfHOCmPu27TNriU0jZgS+CTnEqdDvfvWFB2OfjmOF3vfhVirLiI6tKk36f8INPEMfiYwjZPAOX5FV8+F1YwWt8peZfg0nrvx7F/sJ8XyPG/RFGfEw4B7/ogbkMFHYjWb0vgKMH5uBq6sy0XUcI2buMN0p+ubas8qOj/kFa/WpZv3YKHMb+wP7Ag3zVw5QWkzYTfMibub2knmysbDKqO7/Fd9sDiY2NJcZvHi3iF7H8cFaxawBl1Q85Ify09grua4OJjw5i+8zmxPpFP3ne7oky4yenTo+PWbsrgNi4EHbO68GtX6cwyzdd+1W4kspYv+T2Yygp+UMLRb1BfP2FCxHzvuHgDTUPzqxn9kYZ/1k0mdZSn4mTkh8EQQdZE4fm0lK+zJIhq3cxIGQkk7wzSrtYKAjlQkvW7AAAAKNJREFUoMBh8p/89spmhkz1q/Tba146xi3x2rEC65VDmR3ycn0DQRAEQRAEwVBSBteAjJqdJjK+eThbD4mBilAZVJzfvBCfuuP5sPOLclbvRaGk0UgvPC8uZ2WoGKgIgiAIgvDvofPKisL+bX76dRJOqiS8589geXimuHwnCIIgCIIgCEKl0zlYEQRBEARBEARB+CdIvA1MEARBEARBEATh+fo/FZPbKGh4JScAAAAASUVORK5CYII=;movable=0;resizable=0;rotatable=0;deletable=0;editable=0;locked=1;connectable=0;" parent="1" vertex="1">
          <mxGeometry x="8" y="380" width="811" height="128" as="geometry" />
        </mxCell>
        <mxCell id="a4QIQ_dStBdL91H8EMLK-3" value="CBA = CPU Bank Address (8b out)" style="rounded=1;whiteSpace=wrap;html=1;fillColor=#d5e8d4;gradientColor=#97d077;strokeColor=#82b366;" parent="1" vertex="1">
          <mxGeometry x="200" y="310" width="100" height="40" as="geometry" />
        </mxCell>
        <mxCell id="a4QIQ_dStBdL91H8EMLK-4" value="CA = CPU Address (16b out)" style="rounded=1;whiteSpace=wrap;html=1;fillColor=#d5e8d4;gradientColor=#97d077;strokeColor=#82b366;" parent="1" vertex="1">
          <mxGeometry x="270" y="250" width="100" height="30" as="geometry" />
        </mxCell>
        <mxCell id="a4QIQ_dStBdL91H8EMLK-5" value="CD = CPU Data Bus (8b in/out)" style="rounded=1;whiteSpace=wrap;html=1;fillColor=#fff2cc;gradientColor=#ffd966;strokeColor=#d6b656;" parent="1" vertex="1">
          <mxGeometry x="360" y="320" width="100" height="30" as="geometry" />
        </mxCell>
        <mxCell id="a4QIQ_dStBdL91H8EMLK-6" value="ctr = control input signals:&amp;nbsp;&lt;div&gt;R = Reset active&lt;/div&gt;&lt;div&gt;I = IRQn active&lt;/div&gt;&lt;div&gt;N = NMIn active&lt;/div&gt;&lt;div&gt;A = ABORTn active&lt;/div&gt;" style="rounded=1;whiteSpace=wrap;html=1;fillColor=#f8cecc;gradientColor=#ea6b66;strokeColor=#b85450;" parent="1" vertex="1">
          <mxGeometry x="400" y="225" width="170" height="80" as="geometry" />
        </mxCell>
        <mxCell id="a4QIQ_dStBdL91H8EMLK-7" value="sta = status output signals:&lt;br&gt;r/&lt;font color=&quot;#ff0000&quot;&gt;W&lt;/font&gt; = reads or write&lt;br&gt;v = vector pull cycle&lt;br&gt;L = mem lock access&lt;br&gt;e/N = emulation or Native mode&lt;br&gt;m(8)/M(16) = &#39;816 M-flag (accu)&lt;br&gt;x(8)/X(16) = &#39;816 X-flag (X, Y regs)&lt;br&gt;P = valid program address&lt;br&gt;D = valid data address&lt;br&gt;S = sync, opcode fetch cycle" style="rounded=1;whiteSpace=wrap;html=1;align=center;fillColor=#dae8fc;gradientColor=#7ea6e0;strokeColor=#6c8ebf;" parent="1" vertex="1">
          <mxGeometry x="600" y="220" width="200" height="150" as="geometry" />
        </mxCell>
        <mxCell id="a4QIQ_dStBdL91H8EMLK-9" value="MAH = Memory Address High - SRAM upper bits" style="rounded=1;whiteSpace=wrap;html=1;fillColor=#cdeb8b;strokeColor=#36393d;" parent="1" vertex="1">
          <mxGeometry x="80" y="310" width="110" height="50" as="geometry" />
        </mxCell>
        <mxCell id="a4QIQ_dStBdL91H8EMLK-10" style="edgeStyle=orthogonalEdgeStyle;rounded=0;orthogonalLoop=1;jettySize=auto;html=1;exitX=0.5;exitY=1;exitDx=0;exitDy=0;entryX=0.157;entryY=0.944;entryDx=0;entryDy=0;entryPerimeter=0;strokeColor=#b85450;fillColor=#f8cecc;" parent="1" source="a4QIQ_dStBdL91H8EMLK-9" edge="1">
          <mxGeometry relative="1" as="geometry">
            <Array as="points">
              <mxPoint x="135" y="370" />
            </Array>
            <mxPoint x="135.48399999999992" y="379.9200000000001" as="targetPoint" />
          </mxGeometry>
        </mxCell>
        <mxCell id="a4QIQ_dStBdL91H8EMLK-11" style="edgeStyle=none;rounded=0;orthogonalLoop=1;jettySize=auto;html=1;exitX=0.5;exitY=1;exitDx=0;exitDy=0;entryX=0.323;entryY=0.944;entryDx=0;entryDy=0;entryPerimeter=0;strokeColor=#b85450;fillColor=#f8cecc;" parent="1" source="a4QIQ_dStBdL91H8EMLK-3" edge="1">
          <mxGeometry relative="1" as="geometry">
            <mxPoint x="270.27599999999984" y="379.9200000000001" as="targetPoint" />
          </mxGeometry>
        </mxCell>
        <mxCell id="a4QIQ_dStBdL91H8EMLK-12" style="edgeStyle=none;rounded=0;orthogonalLoop=1;jettySize=auto;html=1;exitX=0.5;exitY=1;exitDx=0;exitDy=0;entryX=0.409;entryY=0.944;entryDx=0;entryDy=0;entryPerimeter=0;strokeColor=#b85450;fillColor=#f8cecc;" parent="1" source="a4QIQ_dStBdL91H8EMLK-4" edge="1">
          <mxGeometry relative="1" as="geometry">
            <mxPoint x="270" y="330" as="sourcePoint" />
            <mxPoint x="340.10799999999995" y="379.9200000000001" as="targetPoint" />
          </mxGeometry>
        </mxCell>
        <mxCell id="a4QIQ_dStBdL91H8EMLK-13" style="edgeStyle=none;rounded=0;orthogonalLoop=1;jettySize=auto;html=1;entryX=0.496;entryY=0.011;entryDx=0;entryDy=0;entryPerimeter=0;strokeColor=#b85450;fillColor=#f8cecc;" parent="1" source="a4QIQ_dStBdL91H8EMLK-5" target="a4QIQ_dStBdL91H8EMLK-1" edge="1">
          <mxGeometry relative="1" as="geometry">
            <mxPoint x="390" y="330" as="sourcePoint" />
            <mxPoint x="360" y="390" as="targetPoint" />
          </mxGeometry>
        </mxCell>
        <mxCell id="a4QIQ_dStBdL91H8EMLK-14" style="edgeStyle=none;rounded=0;orthogonalLoop=1;jettySize=auto;html=1;entryX=0.591;entryY=0.016;entryDx=0;entryDy=0;entryPerimeter=0;strokeColor=#b85450;exitX=0.5;exitY=1;exitDx=0;exitDy=0;fillColor=#f8cecc;" parent="1" source="a4QIQ_dStBdL91H8EMLK-6" target="a4QIQ_dStBdL91H8EMLK-1" edge="1">
          <mxGeometry relative="1" as="geometry">
            <mxPoint x="404" y="330" as="sourcePoint" />
            <mxPoint x="420" y="391" as="targetPoint" />
          </mxGeometry>
        </mxCell>
        <mxCell id="a4QIQ_dStBdL91H8EMLK-15" style="edgeStyle=none;rounded=0;orthogonalLoop=1;jettySize=auto;html=1;entryX=0.721;entryY=-0.02;entryDx=0;entryDy=0;entryPerimeter=0;strokeColor=#b85450;fillColor=#f8cecc;" parent="1" source="a4QIQ_dStBdL91H8EMLK-7" target="a4QIQ_dStBdL91H8EMLK-1" edge="1">
          <mxGeometry relative="1" as="geometry">
            <mxPoint x="703" y="350.05000000000007" as="sourcePoint" />
            <mxPoint x="570" y="392" as="targetPoint" />
          </mxGeometry>
        </mxCell>
        <mxCell id="a4QIQ_dStBdL91H8EMLK-16" value="Cyc = cycle number.&lt;br&gt;Each line is 1 CPU cycle.&lt;br&gt;Most 65xx instructions execute in 2 to 4 cycles." style="rounded=1;whiteSpace=wrap;html=1;fillColor=#ffcd28;strokeColor=#d79b00;gradientColor=#ffa500;" parent="1" vertex="1">
          <mxGeometry x="20" y="230" width="150" height="60" as="geometry" />
        </mxCell>
        <mxCell id="a4QIQ_dStBdL91H8EMLK-18" style="edgeStyle=none;rounded=0;orthogonalLoop=1;jettySize=auto;html=1;exitX=0.25;exitY=1;exitDx=0;exitDy=0;entryX=0.027;entryY=0;entryDx=0;entryDy=0;entryPerimeter=0;strokeColor=#b85450;fillColor=#f8cecc;" parent="1" source="a4QIQ_dStBdL91H8EMLK-16" target="a4QIQ_dStBdL91H8EMLK-1" edge="1">
          <mxGeometry relative="1" as="geometry">
            <mxPoint x="260" y="340" as="sourcePoint" />
            <mxPoint x="280" y="390" as="targetPoint" />
          </mxGeometry>
        </mxCell>
        <mxCell id="Kkrq3q0o2XR7BrAD-2b9-2" value="" style="rounded=1;whiteSpace=wrap;html=1;fillColor=none;strokeColor=#FF0000;strokeWidth=3;" vertex="1" parent="1">
          <mxGeometry x="260" y="380" width="130" height="20" as="geometry" />
        </mxCell>
        <mxCell id="Kkrq3q0o2XR7BrAD-2b9-3" value="" style="rounded=1;whiteSpace=wrap;html=1;fillColor=none;strokeColor=#FF0000;strokeWidth=3;" vertex="1" parent="1">
          <mxGeometry x="320" y="416" width="70" height="20" as="geometry" />
        </mxCell>
        <mxCell id="Kkrq3q0o2XR7BrAD-2b9-4" value="" style="rounded=1;whiteSpace=wrap;html=1;fillColor=none;strokeColor=#FF0000;strokeWidth=3;" vertex="1" parent="1">
          <mxGeometry x="396" y="416" width="50" height="20" as="geometry" />
        </mxCell>
        <mxCell id="Kkrq3q0o2XR7BrAD-2b9-9" style="edgeStyle=orthogonalEdgeStyle;rounded=0;orthogonalLoop=1;jettySize=auto;html=1;entryX=0;entryY=0.5;entryDx=0;entryDy=0;fillColor=#f8cecc;strokeColor=#b85450;strokeWidth=3;startArrow=classic;startFill=1;endArrow=none;endFill=0;" edge="1" parent="1" source="Kkrq3q0o2XR7BrAD-2b9-5" target="Kkrq3q0o2XR7BrAD-2b9-2">
          <mxGeometry relative="1" as="geometry">
            <Array as="points">
              <mxPoint x="290" y="460" />
              <mxPoint x="240" y="460" />
              <mxPoint x="240" y="390" />
            </Array>
          </mxGeometry>
        </mxCell>
        <mxCell id="Kkrq3q0o2XR7BrAD-2b9-5" value="Original PC" style="rounded=1;whiteSpace=wrap;html=1;fillColor=#d80073;strokeColor=#A50040;fontColor=#ffffff;" vertex="1" parent="1">
          <mxGeometry x="250" y="520" width="80" height="25" as="geometry" />
        </mxCell>
        <mxCell id="Kkrq3q0o2XR7BrAD-2b9-6" value="SP" style="rounded=1;whiteSpace=wrap;html=1;fillColor=#d80073;strokeColor=#A50040;fontColor=#ffffff;" vertex="1" parent="1">
          <mxGeometry x="345" y="520" width="51" height="25" as="geometry" />
        </mxCell>
        <mxCell id="Kkrq3q0o2XR7BrAD-2b9-11" style="edgeStyle=orthogonalEdgeStyle;rounded=0;orthogonalLoop=1;jettySize=auto;html=1;exitX=0.5;exitY=0;exitDx=0;exitDy=0;entryX=1;entryY=1;entryDx=0;entryDy=0;fillColor=#f8cecc;strokeColor=#b85450;strokeWidth=3;startArrow=classic;startFill=1;endArrow=none;endFill=0;" edge="1" parent="1" source="Kkrq3q0o2XR7BrAD-2b9-7" target="Kkrq3q0o2XR7BrAD-2b9-4">
          <mxGeometry relative="1" as="geometry" />
        </mxCell>
        <mxCell id="Kkrq3q0o2XR7BrAD-2b9-7" value="Flags" style="rounded=1;whiteSpace=wrap;html=1;fillColor=#d80073;strokeColor=#A50040;fontColor=#ffffff;" vertex="1" parent="1">
          <mxGeometry x="420" y="520" width="51" height="25" as="geometry" />
        </mxCell>
        <mxCell id="Kkrq3q0o2XR7BrAD-2b9-8" value="Register readout&lt;br&gt;interpretation:" style="text;html=1;align=center;verticalAlign=middle;whiteSpace=wrap;rounded=0;fontStyle=1;fontColor=#FF0000;" vertex="1" parent="1">
          <mxGeometry x="110" y="515" width="140" height="35" as="geometry" />
        </mxCell>
        <mxCell id="Kkrq3q0o2XR7BrAD-2b9-10" style="edgeStyle=orthogonalEdgeStyle;rounded=0;orthogonalLoop=1;jettySize=auto;html=1;exitX=0.5;exitY=0;exitDx=0;exitDy=0;entryX=1;entryY=1;entryDx=0;entryDy=0;fillColor=#f8cecc;strokeColor=#b85450;strokeWidth=3;startArrow=classic;startFill=1;endArrow=none;endFill=0;" edge="1" parent="1" source="Kkrq3q0o2XR7BrAD-2b9-6" target="Kkrq3q0o2XR7BrAD-2b9-3">
          <mxGeometry relative="1" as="geometry">
            <Array as="points">
              <mxPoint x="370" y="490" />
              <mxPoint x="390" y="490" />
            </Array>
          </mxGeometry>
        </mxCell>
      </root>
    </mxGraphModel>
  </diagram>
</mxfile>
